<svg width="46" height="36" viewBox="0 0 46 36" fill="none" xmlns="http://www.w3.org/2000/svg">
<path d="M38.9013 2.95067C35.9719 1.60595 32.8329 0.615798 29.549 0.0493628C29.4888 0.0382125 29.4286 0.0649885 29.3996 0.12074C28.9961 0.838819 28.548 1.77767 28.2359 2.51359C24.7045 1.98506 21.191 1.98506 17.731 2.51359C17.4166 1.75983 16.9529 0.838819 16.5471 0.12074C16.5159 0.0672185 16.4557 0.0404426 16.3978 0.0493628C13.1161 0.615798 9.97488 1.60595 7.04545 2.95067C7.02092 2.96182 6.99862 2.97966 6.98302 3.00419C1.02606 11.9066 -0.605909 20.5904 0.194446 29.1672C0.198905 29.2096 0.221204 29.2498 0.254645 29.2743C4.18508 32.1622 7.99294 33.915 11.7294 35.0769C11.7896 35.0947 11.852 35.0724 11.8899 35.0234C12.7728 33.8169 13.562 32.5435 14.2375 31.2033C14.2776 31.1252 14.2375 31.0316 14.1572 31.0003C12.9065 30.5253 11.7182 29.9478 10.5723 29.2921C10.4809 29.2386 10.4743 29.1093 10.5568 29.0468C10.7975 28.8662 11.0383 28.6789 11.2679 28.4893C11.3103 28.4536 11.3682 28.4469 11.4173 28.4692C18.937 31.9035 27.0788 31.9035 34.5094 28.4692C34.5585 28.4447 34.6164 28.4536 34.6588 28.4871C34.8884 28.6766 35.1292 28.8662 35.3722 29.0468C35.4547 29.1093 35.4503 29.2386 35.3588 29.2921C34.2152 29.9612 33.0246 30.5276 31.7717 31.0003C31.6892 31.0316 31.6535 31.1252 31.6937 31.2055C32.3848 32.5435 33.1718 33.8147 34.039 35.0234C34.0747 35.0747 34.1393 35.097 34.1995 35.0791C37.9538 33.9173 41.7617 32.1644 45.6921 29.2765C45.7255 29.252 45.7478 29.2118 45.7523 29.1717C46.7109 19.2569 44.1471 10.6444 38.9593 3.00865C38.9459 2.98412 38.9259 2.96405 38.8991 2.9529L38.9013 2.95067ZM15.3566 23.9445C13.0915 23.9445 11.2278 21.866 11.2278 19.3126C11.2278 16.7592 13.0581 14.6808 15.3566 14.6808C17.6551 14.6808 19.5234 16.7793 19.4855 19.3126C19.4855 21.866 17.6551 23.9445 15.3566 23.9445ZM30.6258 23.9445C28.3607 23.9445 26.497 21.866 26.497 19.3126C26.497 16.7592 28.3273 14.6808 30.6258 14.6808C32.9243 14.6808 34.7925 16.7793 34.7546 19.3126C34.7546 21.866 32.9444 23.9445 30.6258 23.9445Z" fill="#FF725E"/>
</svg>
