<svg width="40" height="38" viewBox="0 0 40 38" fill="none" xmlns="http://www.w3.org/2000/svg">
<path d="M29.8885 0H10.1984C4.75867 0 0.333313 4.42667 0.333313 9.86801V27.8868C0.333313 33.3282 4.75867 37.7548 10.1984 37.7548H29.8885C35.3282 37.7548 39.7536 33.3282 39.7536 27.8868V9.86801C39.7536 4.42667 35.3282 0 29.8885 0ZM3.81341 9.86801C3.81341 6.34675 6.67819 3.48109 10.1984 3.48109H29.8885C33.4087 3.48109 36.2735 6.34675 36.2735 9.86801V27.8868C36.2735 31.4081 33.4087 34.2738 29.8885 34.2738H10.1984C6.67819 34.2738 3.81341 31.4081 3.81341 27.8868V9.86801Z" fill="#FF725E"/>
<path d="M20.0435 28.0541C25.102 28.0541 29.2197 23.9374 29.2197 18.8752C29.2197 13.813 25.1043 9.69629 20.0435 9.69629C14.9828 9.69629 10.8673 13.813 10.8673 18.8752C10.8673 23.9374 14.9828 28.0541 20.0435 28.0541ZM20.0435 13.1796C23.1848 13.1796 25.7397 15.7353 25.7397 18.8774C25.7397 22.0196 23.1848 24.5752 20.0435 24.5752C16.9023 24.5752 14.3474 22.0196 14.3474 18.8774C14.3474 15.7353 16.9023 13.1796 20.0435 13.1796Z" fill="#FF725E"/>
<path d="M30.0691 11.1797C31.4313 11.1797 32.5416 10.0713 32.5416 8.70655C32.5416 7.34176 31.4335 6.2334 30.0691 6.2334C28.7047 6.2334 27.5967 7.34176 27.5967 8.70655C27.5967 10.0713 28.7047 11.1797 30.0691 11.1797Z" fill="#FF725E"/>
</svg>
