<svg width="51" height="56" viewBox="0 0 51 56" fill="none" xmlns="http://www.w3.org/2000/svg">
<path d="M14.5939 31.5C13.0469 31.5 11.5345 32.0132 10.2482 32.9746C8.96184 33.9361 7.95926 35.3027 7.36722 36.9015C6.77519 38.5004 6.62028 40.2597 6.9221 41.957C7.22392 43.6544 7.9689 45.2135 9.06285 46.4372C10.1568 47.6609 11.5506 48.4943 13.0679 48.8319C14.5853 49.1695 16.158 48.9962 17.5873 48.3339C19.0166 47.6717 20.2383 46.5502 21.0978 45.1112C21.9573 43.6723 22.4161 41.9806 22.4161 40.25C22.4161 39.1009 22.2137 37.9631 21.8206 36.9015C21.4275 35.8399 20.8514 34.8753 20.125 34.0628C19.3987 33.2503 18.5364 32.6058 17.5873 32.1661C16.6383 31.7263 15.6211 31.5 14.5939 31.5ZM14.5939 43.75C13.9751 43.75 13.3702 43.5447 12.8556 43.1601C12.3411 42.7756 11.9401 42.2289 11.7032 41.5894C11.4664 40.9499 11.4045 40.2461 11.5252 39.5672C11.6459 38.8883 11.9439 38.2646 12.3815 37.7751C12.8191 37.2856 13.3766 36.9523 13.9835 36.8173C14.5905 36.6822 15.2196 36.7515 15.7913 37.0164C16.363 37.2813 16.8517 37.7299 17.1955 38.3055C17.5393 38.8811 17.7228 39.5578 17.7228 40.25C17.7228 41.1783 17.3931 42.0685 16.8064 42.7249C16.2196 43.3812 15.4238 43.75 14.5939 43.75ZM8.33623 28C7.71411 27.997 7.11766 27.7223 6.67402 27.2344C6.45525 26.9905 6.28167 26.7007 6.16323 26.3816C6.04479 26.0626 5.98383 25.7205 5.98383 25.375C5.98383 25.0295 6.04479 24.6874 6.16323 24.3684C6.28167 24.0493 6.45525 23.7595 6.67402 23.5156L8.92289 21L6.67402 18.4844C6.23318 17.9912 5.98552 17.3224 5.98552 16.625C5.98552 15.9276 6.23318 15.2588 6.67402 14.7656C7.11487 14.2725 7.71278 13.9954 8.33623 13.9954C8.95967 13.9954 9.55758 14.2725 9.99843 14.7656L12.2473 17.2812L14.4962 14.7656C14.937 14.2725 15.5349 13.9954 16.1584 13.9954C16.7818 13.9954 17.3797 14.2725 17.8206 14.7656C18.2614 15.2588 18.5091 15.9276 18.5091 16.625C18.5091 17.3224 18.2614 17.9912 17.8206 18.4844L15.5717 21L17.8206 23.5156C18.0393 23.7595 18.2129 24.0493 18.3313 24.3684C18.4498 24.6874 18.5108 25.0295 18.5108 25.375C18.5108 25.7205 18.4498 26.0626 18.3313 26.3816C18.2129 26.7007 18.0393 26.9905 17.8206 27.2344C17.3777 27.7233 16.7806 27.9975 16.1584 27.9975C15.5361 27.9975 14.939 27.7233 14.4962 27.2344L12.2473 24.7188L9.99843 27.2344C9.55479 27.7223 8.95834 27.997 8.33623 28ZM44.4158 44.5156C44.6346 44.7595 44.8081 45.0493 44.9266 45.3684C45.045 45.6874 45.106 46.0295 45.106 46.375C45.106 46.7205 45.045 47.0626 44.9266 47.3816C44.8081 47.7007 44.6346 47.9905 44.4158 48.2344C43.973 48.7233 43.3758 48.9975 42.7536 48.9975C42.1314 48.9975 41.5342 48.7233 41.0914 48.2344L38.8425 45.7188L36.5937 48.2344C36.1508 48.7233 35.5537 48.9975 34.9315 48.9975C34.3093 48.9975 33.7121 48.7233 33.2693 48.2344C33.0505 47.9905 32.8769 47.7007 32.7585 47.3816C32.64 47.0626 32.5791 46.7205 32.5791 46.375C32.5791 46.0295 32.64 45.6874 32.7585 45.3684C32.8769 45.0493 33.0505 44.7595 33.2693 44.5156L35.5181 42L33.2693 39.4844C32.8284 38.9912 32.5808 38.3224 32.5808 37.625C32.5808 36.9276 32.8284 36.2588 33.2693 35.7656C33.7101 35.2725 34.308 34.9954 34.9315 34.9954C35.5549 34.9954 36.1528 35.2725 36.5937 35.7656L38.8425 38.2812L41.0914 35.7656C41.5322 35.2725 42.1301 34.9954 42.7536 34.9954C43.377 34.9954 43.9749 35.2725 44.4158 35.7656C44.8566 36.2588 45.1043 36.9276 45.1043 37.625C45.1043 38.3224 44.8566 38.9912 44.4158 39.4844L42.1669 42L44.4158 44.5156ZM35.9288 24.2594C34.9119 29.2688 31.3724 33.775 27.1093 35.4594C26.8591 35.5633 26.594 35.6152 26.3271 35.6125C25.7749 35.6105 25.241 35.3908 24.8193 34.9919C24.3977 34.593 24.1153 34.0405 24.0218 33.4317C23.9284 32.8228 24.0299 32.1966 24.3085 31.6633C24.5871 31.1299 25.0249 30.7235 25.5449 30.5156C28.3022 29.4219 30.688 26.3813 31.3528 23.1C31.8222 20.8031 31.4311 18.5281 30.2382 16.4062V18.375C30.2382 19.0712 29.9909 19.7389 29.5509 20.2312C29.1108 20.7234 28.5139 21 27.8915 21C27.2692 21 26.6723 20.7234 26.2322 20.2312C25.7921 19.7389 25.5449 19.0712 25.5449 18.375V9.625C25.5449 8.92881 25.7921 8.26113 26.2322 7.76884C26.6723 7.27656 27.2692 7 27.8915 7H35.7137C36.336 7 36.9329 7.27656 37.373 7.76884C37.8131 8.26113 38.0603 8.92881 38.0603 9.625C38.0603 10.3212 37.8131 10.9889 37.373 11.4812C36.9329 11.9734 36.336 12.25 35.7137 12.25H33.367C35.8701 15.8813 36.7697 20.0813 35.9288 24.2594Z" fill="#F3BA2F"/>
</svg>
