<svg width="59" height="63" viewBox="0 0 59 63" fill="none" xmlns="http://www.w3.org/2000/svg">
<g clip-path="url(#clip0_9_214)">
<path d="M57.2092 21.3754L38.888 11.2534V31.4974L57.2092 21.378V21.3754ZM20.3016 41.6246V21.3754L1.71519 11.2534V31.5L20.304 41.6246H20.3016ZM1.22777 10.3897C1.36155 10.2972 1.51489 10.2445 1.67279 10.2367C1.83069 10.2289 1.98773 10.2662 2.12854 10.3451L20.3016 20.244L38.477 10.3451C38.6053 10.2744 38.7469 10.2376 38.8904 10.2376C39.0339 10.2376 39.1754 10.2744 39.3037 10.3451L57.6249 20.4697C57.7779 20.554 57.9065 20.6833 57.9963 20.8432C58.0862 21.0031 58.1338 21.1874 58.1339 21.3754V41.6141C58.1337 41.8024 58.0861 41.9869 57.9963 42.1473C57.9064 42.3076 57.7779 42.4374 57.6249 42.5224L39.3037 52.6549C39.1627 52.7318 39.0061 52.7681 38.8487 52.7604C38.6913 52.7526 38.5383 52.7011 38.4041 52.6105C38.2699 52.52 38.1588 52.3934 38.0812 52.2428C38.0037 52.0921 37.9623 51.9223 37.9609 51.7492V33.138L20.7126 42.5355C20.5846 42.6041 20.444 42.6398 20.3016 42.6398C20.1592 42.6398 20.0186 42.6041 19.8906 42.5355L1.30423 32.4082C1.15021 32.3243 1.02055 32.1948 0.929808 32.0344C0.839064 31.8739 0.790833 31.6889 0.790532 31.5V11.2534C0.790022 11.0803 0.829959 10.91 0.906518 10.7588C0.983078 10.6076 1.0937 10.4805 1.22777 10.3897Z" fill="#F3BA2F"/>
</g>
<defs>
<clipPath id="clip0_9_214">
<rect width="57.3433" height="63" fill="white" transform="translate(0.790527)"/>
</clipPath>
</defs>
</svg>
