<svg width="187" height="22" viewBox="0 0 187 22" fill="none" xmlns="http://www.w3.org/2000/svg">
<path d="M8.426 13.1114C8.426 13.6688 8.448 14.0868 8.492 14.3654C8.55067 14.6441 8.61667 14.8274 8.69 14.9154C8.76333 15.0034 8.82933 15.0474 8.888 15.0474H10.164C10.2813 15.0474 10.34 15.1868 10.34 15.4654C10.34 15.5241 10.3253 15.5901 10.296 15.6634C10.2813 15.7368 10.2373 15.7734 10.164 15.7734C9.70933 15.7734 9.24 15.7734 8.756 15.7734C8.28667 15.7588 7.832 15.7514 7.392 15.7514C6.776 15.7514 6.28467 15.7588 5.918 15.7734C5.55133 15.7734 5.25067 15.7808 5.016 15.7954C4.78133 15.8101 4.54667 15.8174 4.312 15.8174C4.25333 15.8174 4.20933 15.7808 4.18 15.7074C4.15067 15.6341 4.136 15.5534 4.136 15.4654C4.136 15.3628 4.15067 15.2748 4.18 15.2014C4.20933 15.1134 4.25333 15.0694 4.312 15.0694H5.258C5.63933 15.0694 5.88133 14.9961 5.984 14.8494C6.10133 14.7028 6.16 14.4388 6.16 14.0574V3.87144C6.16 2.58077 6.01333 1.93544 5.72 1.93544H5.258C4.58333 1.93544 3.95267 1.96477 3.366 2.02344C2.77933 2.06744 2.23667 2.1481 1.738 2.26544C1.45933 2.35344 1.254 2.57344 1.122 2.92544C0.99 3.27744 0.894667 3.6001 0.836 3.89344C0.821333 3.96677 0.777333 4.0181 0.704 4.04744C0.645333 4.07677 0.579333 4.09144 0.506 4.09144C0.418 4.09144 0.322667 4.07677 0.22 4.04744C0.132 4.00344 0.0953333 3.9521 0.11 3.89344C0.183333 3.43877 0.227333 2.91077 0.242 2.30944C0.271333 1.69344 0.286 1.10677 0.286 0.549437C0.286 0.49077 0.337333 0.44677 0.44 0.417437C0.542667 0.373437 0.638 0.351437 0.726 0.351437C0.902 0.351437 0.99 0.417437 0.99 0.549437V0.967437C1.37133 0.982103 1.76733 0.99677 2.178 1.01144C2.60333 1.01144 3.124 1.01144 3.74 1.01144H10.318C11.11 1.01144 11.7627 1.01144 12.276 1.01144C12.7893 0.99677 13.2293 0.982103 13.596 0.967437V0.549437C13.596 0.417437 13.684 0.351437 13.86 0.351437C13.948 0.351437 14.0433 0.373437 14.146 0.417437C14.2487 0.44677 14.3 0.49077 14.3 0.549437C14.3 1.10677 14.3073 1.69344 14.322 2.30944C14.3513 2.91077 14.4027 3.43877 14.476 3.89344C14.4907 3.9521 14.4467 4.00344 14.344 4.04744C14.256 4.07677 14.168 4.09144 14.08 4.09144C14.0067 4.09144 13.9333 4.07677 13.86 4.04744C13.8013 4.0181 13.7647 3.96677 13.75 3.89344C13.6913 3.6001 13.596 3.27744 13.464 2.92544C13.3467 2.57344 13.1413 2.35344 12.848 2.26544C12.3493 2.13344 11.792 2.05277 11.176 2.02344C10.56 1.97944 9.89267 1.9501 9.174 1.93544C8.866 1.9501 8.66067 2.0381 8.558 2.19944C8.47 2.3461 8.426 2.59544 8.426 2.94744V13.1114ZM18.4582 5.10344C18.5168 4.97144 18.6635 4.90544 18.8982 4.90544C19.1182 4.90544 19.2575 4.97877 19.3162 5.12544C19.3895 5.4481 19.5288 5.89544 19.7342 6.46744C19.9542 7.03944 20.2108 7.68477 20.5042 8.40344C20.7975 9.10744 21.0982 9.83344 21.4062 10.5814C21.7288 11.3148 22.0368 12.0188 22.3302 12.6934C22.6382 13.3534 22.9022 13.9181 23.1222 14.3874C23.2982 14.7541 23.4595 14.9888 23.6062 15.0914C23.7528 15.1794 23.9802 15.2234 24.2882 15.2234C24.3762 15.2234 24.4202 15.3114 24.4202 15.4874C24.4202 15.5608 24.4128 15.6341 24.3982 15.7074C24.3835 15.7808 24.3542 15.8174 24.3102 15.8174C23.8555 15.8174 23.4742 15.8101 23.1662 15.7954C22.8582 15.7808 22.5355 15.7734 22.1982 15.7734C21.9195 15.7734 21.5822 15.7808 21.1862 15.7954C20.7902 15.8101 20.3355 15.8174 19.8222 15.8174C19.7635 15.8174 19.7268 15.7881 19.7122 15.7294C19.6975 15.6561 19.6902 15.5901 19.6902 15.5314C19.6902 15.3408 19.7342 15.2454 19.8222 15.2454H20.8782C21.0395 15.2454 21.1202 15.1794 21.1202 15.0474C21.1202 15.0034 21.0615 14.8201 20.9442 14.4974C20.8268 14.1748 20.6728 13.7641 20.4822 13.2654C20.3062 12.7668 20.1082 12.2314 19.8882 11.6594H16.8302C16.5222 12.4221 16.2655 13.0821 16.0602 13.6394C15.8548 14.1968 15.7522 14.5781 15.7522 14.7834C15.7522 14.9594 15.7815 15.0768 15.8402 15.1354C15.8988 15.1941 15.9575 15.2234 16.0162 15.2234H16.9182C17.0355 15.2234 17.0942 15.3114 17.0942 15.4874C17.0942 15.5608 17.0795 15.6341 17.0502 15.7074C17.0355 15.7808 17.0062 15.8174 16.9622 15.8174C16.5955 15.8174 16.3022 15.8101 16.0822 15.7954C15.8768 15.7954 15.6862 15.7881 15.5102 15.7734C15.3488 15.7734 15.1582 15.7734 14.9382 15.7734C14.6742 15.7734 14.4102 15.7808 14.1462 15.7954C13.8968 15.8101 13.5815 15.8174 13.2002 15.8174C13.1415 15.8174 13.0975 15.7881 13.0682 15.7294C13.0535 15.6561 13.0462 15.5901 13.0462 15.5314C13.0462 15.3408 13.0975 15.2454 13.2002 15.2454H13.9042C14.0655 15.2454 14.1828 15.1794 14.2562 15.0474C14.4028 14.8128 14.6082 14.4021 14.8722 13.8154C15.1508 13.2141 15.4588 12.5174 15.7962 11.7254C16.1335 10.9334 16.4708 10.1194 16.8082 9.28344C17.1602 8.44744 17.4828 7.66277 17.7762 6.92944C18.0695 6.18144 18.2968 5.57277 18.4582 5.10344ZM19.6022 10.9114C19.3968 10.3101 19.1915 9.7161 18.9862 9.12944C18.7955 8.54277 18.6195 8.0221 18.4582 7.56744H18.3922C18.2015 8.1101 17.9962 8.67477 17.7762 9.26144C17.5562 9.8481 17.3435 10.3981 17.1382 10.9114H19.6022ZM28.8446 13.4194C28.8446 14.0354 28.8886 14.4681 28.9766 14.7174C29.0646 14.9668 29.1672 15.0914 29.2846 15.0914H30.3846C30.4286 15.0914 30.4652 15.1281 30.4946 15.2014C30.5386 15.2748 30.5606 15.3628 30.5606 15.4654C30.5606 15.5388 30.5459 15.6121 30.5166 15.6854C30.5019 15.7441 30.4726 15.7734 30.4286 15.7734C30.1646 15.7734 29.8199 15.7734 29.3946 15.7734C28.9692 15.7588 28.4632 15.7514 27.8766 15.7514C27.1726 15.7514 26.6739 15.7588 26.3806 15.7734C26.0872 15.8028 25.8526 15.8174 25.6766 15.8174C25.6179 15.8174 25.5739 15.7734 25.5446 15.6854C25.5299 15.5974 25.5226 15.5241 25.5226 15.4654C25.5226 15.3921 25.5299 15.3261 25.5446 15.2674C25.5739 15.1941 25.6106 15.1574 25.6546 15.1574H26.6446C26.8059 15.1574 26.9012 15.1208 26.9306 15.0474C26.9599 14.9741 26.9746 14.7981 26.9746 14.5194V7.58944C26.9746 6.97344 26.9306 6.5261 26.8426 6.24744C26.7692 5.96877 26.6666 5.82944 26.5346 5.82944H25.7426C25.5666 5.82944 25.4786 5.71944 25.4786 5.49944C25.4786 5.26477 25.5592 5.14744 25.7206 5.14744C25.9992 5.14744 26.3292 5.1621 26.7106 5.19144C27.0919 5.2061 27.4806 5.2061 27.8766 5.19144C28.1406 5.19144 28.4486 5.19144 28.8006 5.19144C29.1672 5.17677 29.4826 5.16944 29.7466 5.16944C30.0252 5.15477 30.1646 5.14744 30.1646 5.14744C30.2086 5.14744 30.2452 5.1841 30.2746 5.25744C30.3039 5.33077 30.3186 5.4041 30.3186 5.47744C30.3186 5.68277 30.2599 5.78544 30.1426 5.78544H29.1306C29.0279 5.78544 28.9546 5.80744 28.9106 5.85144C28.8666 5.89544 28.8446 5.99077 28.8446 6.13744V13.4194ZM40.4475 3.62944C40.4475 3.05744 40.4182 2.63944 40.3595 2.37544C40.3155 2.09677 40.2568 1.91344 40.1835 1.82544C40.1248 1.73744 40.0588 1.69344 39.9855 1.69344H38.7095C38.5922 1.69344 38.5335 1.5541 38.5335 1.27544C38.5335 1.2021 38.5408 1.1361 38.5555 1.07744C38.5848 1.0041 38.6362 0.967437 38.7095 0.967437C39.1788 0.967437 39.6482 0.97477 40.1175 0.989436C40.5868 0.989436 41.0415 0.989436 41.4815 0.989436C42.1122 0.989436 42.6035 0.989436 42.9555 0.989436C43.3222 0.97477 43.6228 0.960103 43.8575 0.945437C44.0922 0.93077 44.3268 0.923437 44.5615 0.923437C44.6348 0.923437 44.6788 0.960104 44.6935 1.03344C44.7228 1.10677 44.7375 1.18744 44.7375 1.27544C44.7375 1.3781 44.7228 1.47344 44.6935 1.56144C44.6642 1.63477 44.6202 1.67144 44.5615 1.67144H43.6155C43.2488 1.67144 43.0068 1.74477 42.8895 1.89144C42.7722 2.0381 42.7135 2.3021 42.7135 2.68344V12.8694C42.7135 13.9108 42.6768 14.8714 42.6035 15.7514C42.5302 16.6314 42.3688 17.3794 42.1195 17.9954C41.8262 18.6994 41.4155 19.3374 40.8875 19.9094C40.3742 20.4814 39.7728 20.9361 39.0835 21.2734C38.3942 21.6108 37.6388 21.7794 36.8175 21.7794C36.7148 21.7794 36.5755 21.7574 36.3995 21.7134C36.2088 21.6841 36.0402 21.6108 35.8935 21.4934C35.7322 21.3761 35.6515 21.2074 35.6515 20.9874C35.6515 20.4301 35.9742 20.0268 36.6195 19.7774C36.9422 19.9681 37.3088 20.1074 37.7195 20.1954C38.1302 20.2981 38.4675 20.3494 38.7315 20.3494C39.0102 20.3494 39.2302 20.2834 39.3915 20.1514C39.5528 20.0194 39.6848 19.8581 39.7875 19.6674C39.9342 19.3594 40.0515 18.9121 40.1395 18.3254C40.2275 17.7388 40.2935 17.1081 40.3375 16.4334C40.3815 15.7588 40.4108 15.1208 40.4255 14.5194C40.4402 13.9034 40.4475 13.4194 40.4475 13.0674V3.62944ZM49.3622 13.4194C49.3622 14.0354 49.4062 14.4681 49.4942 14.7174C49.5822 14.9668 49.6848 15.0914 49.8022 15.0914H50.9022C50.9462 15.0914 50.9828 15.1281 51.0122 15.2014C51.0562 15.2748 51.0782 15.3628 51.0782 15.4654C51.0782 15.5388 51.0635 15.6121 51.0342 15.6854C51.0195 15.7441 50.9902 15.7734 50.9462 15.7734C50.6822 15.7734 50.3375 15.7734 49.9122 15.7734C49.4868 15.7588 48.9808 15.7514 48.3942 15.7514C47.6902 15.7514 47.1915 15.7588 46.8982 15.7734C46.6048 15.8028 46.3702 15.8174 46.1942 15.8174C46.1355 15.8174 46.0915 15.7734 46.0622 15.6854C46.0475 15.5974 46.0402 15.5241 46.0402 15.4654C46.0402 15.3921 46.0475 15.3261 46.0622 15.2674C46.0915 15.1941 46.1282 15.1574 46.1722 15.1574H47.1622C47.3235 15.1574 47.4188 15.1208 47.4482 15.0474C47.4775 14.9741 47.4922 14.7981 47.4922 14.5194V7.58944C47.4922 6.97344 47.4482 6.5261 47.3602 6.24744C47.2868 5.96877 47.1842 5.82944 47.0522 5.82944H46.2602C46.0842 5.82944 45.9962 5.71944 45.9962 5.49944C45.9962 5.26477 46.0768 5.14744 46.2382 5.14744C46.5168 5.14744 46.8468 5.1621 47.2282 5.19144C47.6095 5.2061 47.9982 5.2061 48.3942 5.19144C48.6582 5.19144 48.9662 5.19144 49.3182 5.19144C49.6848 5.17677 50.0002 5.16944 50.2642 5.16944C50.5428 5.15477 50.6822 5.14744 50.6822 5.14744C50.7262 5.14744 50.7628 5.1841 50.7922 5.25744C50.8215 5.33077 50.8362 5.4041 50.8362 5.47744C50.8362 5.68277 50.7775 5.78544 50.6602 5.78544H49.6482C49.5455 5.78544 49.4722 5.80744 49.4282 5.85144C49.3842 5.89544 49.3622 5.99077 49.3622 6.13744V13.4194ZM68.0491 15.4654C67.9758 15.5828 67.8438 15.6414 67.6531 15.6414C67.4624 15.6414 67.3378 15.5828 67.2791 15.4654C67.1471 15.2601 66.9638 14.9008 66.7291 14.3874C66.4944 13.8741 66.2231 13.2654 65.9151 12.5614C65.6218 11.8428 65.3064 11.0801 64.9691 10.2734C64.6464 9.46677 64.3311 8.66744 64.0231 7.87544C63.7151 7.08344 63.4291 6.34277 63.1651 5.65344C62.9011 4.94944 62.6884 4.36277 62.5271 3.89344H62.4391C62.2778 6.22544 62.1458 8.14677 62.0431 9.65744C61.9551 11.1534 61.9038 12.2901 61.8891 13.0674C61.8744 13.8301 61.9184 14.3508 62.0211 14.6294C62.1238 14.9081 62.2631 15.0474 62.4391 15.0474H63.4071C63.5098 15.0474 63.5831 15.0841 63.6271 15.1574C63.6711 15.2308 63.6931 15.3114 63.6931 15.3994C63.6931 15.4874 63.6711 15.5754 63.6271 15.6634C63.5831 15.7368 63.5098 15.7734 63.4071 15.7734C62.8644 15.7734 62.4318 15.7734 62.1091 15.7734C61.8011 15.7588 61.4638 15.7514 61.0971 15.7514C60.5251 15.7514 59.9751 15.7588 59.4471 15.7734C58.9338 15.8028 58.5598 15.8174 58.3251 15.8174C58.2664 15.8174 58.2151 15.7808 58.1711 15.7074C58.1418 15.6194 58.1271 15.5314 58.1271 15.4434C58.1271 15.3554 58.1418 15.2748 58.1711 15.2014C58.2151 15.1134 58.2664 15.0694 58.3251 15.0694H59.0511C59.4031 15.0694 59.6598 15.0401 59.8211 14.9814C59.9971 14.9228 60.1144 14.7541 60.1731 14.4754C60.2171 14.1821 60.2758 13.7494 60.3491 13.1774C60.4224 12.5908 60.5031 11.9234 60.5911 11.1754C60.6791 10.4128 60.7671 9.63544 60.8551 8.84344C60.9431 8.05144 61.0238 7.2961 61.0971 6.57744C61.1704 5.85877 61.2291 5.24277 61.2731 4.72944C61.3171 4.2161 61.3391 3.87144 61.3391 3.69544C61.3538 2.9181 61.3098 2.3901 61.2071 2.11144C61.1191 1.8181 60.9724 1.67144 60.7671 1.67144H59.6671C59.6084 1.67144 59.5644 1.6421 59.5351 1.58344C59.5058 1.5101 59.4911 1.43677 59.4911 1.36344C59.4911 1.27544 59.5058 1.18744 59.5351 1.09944C59.5644 1.01144 59.6084 0.967437 59.6671 0.967437C59.9898 0.967437 60.3858 0.97477 60.8551 0.989436C61.3244 0.989436 61.8158 0.99677 62.3291 1.01144C62.8571 1.01144 63.3558 1.01144 63.8251 1.01144C63.8984 1.26077 64.0451 1.70077 64.2651 2.33144C64.4851 2.9621 64.7491 3.71744 65.0571 4.59744C65.3798 5.46277 65.7244 6.3941 66.0911 7.39144C66.4578 8.3741 66.8171 9.34944 67.1691 10.3174C67.5211 11.2854 67.8364 12.1801 68.1151 13.0014H68.2031C68.8191 11.4468 69.4351 9.92144 70.0511 8.42544C70.6671 6.92944 71.2244 5.54344 71.7231 4.26744C72.2364 2.99144 72.6251 1.9061 72.8891 1.01144C73.5784 1.01144 74.2678 1.0041 74.9571 0.989436C75.6464 0.960103 76.1891 0.945437 76.5851 0.945437C76.6438 0.945437 76.6878 0.99677 76.7171 1.09944C76.7611 1.2021 76.7831 1.29744 76.7831 1.38544C76.7831 1.5761 76.7171 1.67144 76.5851 1.67144H75.7491C75.4704 1.67144 75.2798 1.75944 75.1771 1.93544C75.0891 2.11144 75.0524 2.38277 75.0671 2.74944C75.0671 2.86677 75.0891 3.2261 75.1331 3.82744C75.1918 4.4141 75.2651 5.1401 75.3531 6.00544C75.4411 6.8561 75.5291 7.76544 75.6171 8.73344C75.7198 9.68677 75.8151 10.6108 75.9031 11.5054C76.0058 12.3854 76.0938 13.1408 76.1671 13.7714C76.1964 14.0794 76.2478 14.3728 76.3211 14.6514C76.4091 14.9154 76.5264 15.0474 76.6731 15.0474H78.0591C78.1324 15.0474 78.1911 15.0841 78.2351 15.1574C78.2791 15.2308 78.3011 15.3114 78.3011 15.3994C78.3011 15.5021 78.2791 15.5901 78.2351 15.6634C78.1911 15.7368 78.1324 15.7734 78.0591 15.7734C77.8244 15.7734 77.5164 15.7734 77.1351 15.7734C76.7538 15.7588 76.3798 15.7514 76.0131 15.7514C75.6464 15.7514 75.3678 15.7514 75.1771 15.7514C74.9278 15.7514 74.6051 15.7588 74.2091 15.7734C73.8131 15.7734 73.4318 15.7808 73.0651 15.7954C72.6984 15.8101 72.4418 15.8174 72.2951 15.8174C72.2364 15.8174 72.1924 15.7734 72.1631 15.6854C72.1338 15.5974 72.1191 15.5094 72.1191 15.4214C72.1191 15.3334 72.1338 15.2528 72.1631 15.1794C72.1924 15.1061 72.2364 15.0694 72.2951 15.0694H73.1311C73.6738 15.0694 73.9231 14.8348 73.8791 14.3654C73.8644 14.1308 73.8351 13.7568 73.7911 13.2434C73.7618 12.7301 73.7178 12.1361 73.6591 11.4614C73.6004 10.7721 73.5418 10.0534 73.4831 9.30544C73.4244 8.55744 73.3731 7.83877 73.3291 7.14944C73.2851 6.44544 73.2411 5.82944 73.1971 5.30144C73.1678 4.75877 73.1531 4.35544 73.1531 4.09144H73.0651C72.8451 4.56077 72.5591 5.19877 72.2071 6.00544C71.8698 6.79744 71.4958 7.66277 71.0851 8.60144C70.6891 9.52544 70.2931 10.4421 69.8971 11.3514C69.5011 12.2608 69.1344 13.0821 68.7971 13.8154C68.4744 14.5488 68.2251 15.0988 68.0491 15.4654ZM83.0067 10.1854C83.476 10.1708 83.9234 10.1488 84.3487 10.1194C84.7887 10.0901 85.1554 10.0608 85.4487 10.0314C85.742 9.98744 85.9034 9.9581 85.9327 9.94344L86.0867 9.01944C86.116 8.9461 86.2187 8.90944 86.3947 8.90944C86.4387 8.90944 86.4974 8.9241 86.5707 8.95344C86.644 8.9681 86.6807 9.00477 86.6807 9.06344C86.6514 9.2981 86.6294 9.52544 86.6147 9.74544C86.6 9.95077 86.5927 10.1781 86.5927 10.4274C86.5927 10.6474 86.6 10.8894 86.6147 11.1534C86.6294 11.4028 86.6514 11.6521 86.6807 11.9014C86.6807 11.9454 86.6367 11.9821 86.5487 12.0114C86.4754 12.0261 86.402 12.0334 86.3287 12.0334C86.27 12.0334 86.2114 12.0261 86.1527 12.0114C86.1087 11.9968 86.0867 11.9748 86.0867 11.9454L85.9107 10.9994C85.8814 10.9701 85.72 10.9408 85.4267 10.9114C85.148 10.8821 84.796 10.8528 84.3707 10.8234C83.9454 10.7941 83.4907 10.7721 83.0067 10.7574V13.4194C83.0067 14.0354 83.0507 14.4681 83.1387 14.7174C83.2267 14.9521 83.3294 15.0694 83.4467 15.0694H84.1507C84.84 15.0548 85.4927 14.9888 86.1087 14.8714C86.7394 14.7541 87.2014 14.5928 87.4947 14.3874L87.6047 13.5294C87.6194 13.4854 87.6634 13.4561 87.7367 13.4414C87.8247 13.4121 87.898 13.3974 87.9567 13.3974C88.03 13.3974 88.096 13.4048 88.1547 13.4194C88.2134 13.4341 88.2354 13.4708 88.2207 13.5294C88.162 13.9108 88.1254 14.3434 88.1107 14.8274C88.096 15.2968 88.0887 15.7294 88.0887 16.1254C88.0887 16.1694 88.052 16.1988 87.9787 16.2134C87.92 16.2281 87.8687 16.2354 87.8247 16.2354C87.766 16.2354 87.6927 16.2281 87.6047 16.2134C87.5314 16.1988 87.4947 16.1694 87.4947 16.1254V15.7734H83.5787C82.684 15.7734 81.9947 15.7734 81.5107 15.7734C81.0267 15.7881 80.6674 15.7954 80.4327 15.7954C80.198 15.8101 80 15.8174 79.8387 15.8174C79.78 15.8174 79.736 15.7734 79.7067 15.6854C79.692 15.5974 79.6847 15.5241 79.6847 15.4654C79.6847 15.3921 79.692 15.3261 79.7067 15.2674C79.736 15.1941 79.7727 15.1574 79.8167 15.1574H80.8067C80.968 15.1574 81.0634 15.1208 81.0927 15.0474C81.122 14.9741 81.1367 14.7981 81.1367 14.5194V7.58944C81.1367 6.97344 81.0927 6.5261 81.0047 6.24744C80.9314 5.96877 80.8287 5.82944 80.6967 5.82944H79.9047C79.7287 5.82944 79.6407 5.71944 79.6407 5.49944C79.6407 5.26477 79.7214 5.14744 79.8827 5.14744C80.1614 5.14744 80.4987 5.15477 80.8947 5.16944C81.3054 5.1841 81.716 5.19144 82.1267 5.19144H86.6807V4.83944C86.6807 4.79544 86.71 4.7661 86.7687 4.75144C86.8274 4.7221 86.886 4.70744 86.9447 4.70744C87.0034 4.70744 87.0694 4.7221 87.1427 4.75144C87.2307 4.7661 87.2747 4.79544 87.2747 4.83944C87.2747 5.23544 87.282 5.6681 87.2967 6.13744C87.326 6.60677 87.37 7.00277 87.4287 7.32544C87.4434 7.36944 87.4214 7.4061 87.3627 7.43544C87.304 7.4501 87.2454 7.45744 87.1867 7.45744C87.128 7.45744 87.0474 7.4501 86.9447 7.43544C86.8567 7.4061 86.8127 7.36944 86.8127 7.32544C86.754 7.1201 86.6807 6.9001 86.5927 6.66544C86.5194 6.43077 86.3947 6.26944 86.2187 6.18144C85.94 6.07877 85.5954 5.9981 85.1847 5.93944C84.774 5.88077 84.224 5.85144 83.5347 5.85144C83.3294 5.8661 83.19 5.9321 83.1167 6.04944C83.0434 6.1521 83.0067 6.3281 83.0067 6.57744V10.1854ZM99.6342 15.9054C99.6342 15.9054 99.4729 15.7221 99.1502 15.3554C98.8422 14.9741 98.4316 14.4754 97.9182 13.8594C97.4049 13.2434 96.8329 12.5614 96.2022 11.8134C95.5716 11.0654 94.9409 10.3101 94.3102 9.54744C93.6796 8.7701 93.0929 8.05877 92.5502 7.41344H92.4842C92.5136 8.93877 92.5356 10.2148 92.5502 11.2414C92.5796 12.2681 92.6016 13.1628 92.6162 13.9254C92.6162 14.2041 92.6456 14.4681 92.7042 14.7174C92.7629 14.9521 92.8436 15.0694 92.9462 15.0694H93.8262C93.8702 15.0694 93.8996 15.1208 93.9142 15.2234C93.9436 15.3261 93.9582 15.4214 93.9582 15.5094C93.9582 15.5681 93.9509 15.6268 93.9362 15.6854C93.9216 15.7294 93.8849 15.7514 93.8262 15.7514H92.0002C91.6482 15.7514 91.2816 15.7588 90.9002 15.7734C90.5189 15.7881 90.2182 15.7954 89.9982 15.7954C89.9689 15.7954 89.9396 15.7661 89.9102 15.7074C89.8956 15.6488 89.8882 15.5901 89.8882 15.5314C89.8882 15.4581 89.8956 15.3774 89.9102 15.2894C89.9396 15.2014 89.9689 15.1574 89.9982 15.1574H90.5262C90.7756 15.1574 90.9516 15.1281 91.0542 15.0694C91.1569 15.0108 91.2156 14.8934 91.2302 14.7174C91.2742 14.1894 91.3182 13.5734 91.3622 12.8694C91.4062 12.1654 91.4429 11.4321 91.4722 10.6694C91.5016 9.90677 91.5236 9.15877 91.5382 8.42544C91.5529 7.67744 91.5602 6.99544 91.5602 6.37944L91.4502 6.24744C91.2742 6.0421 91.0982 5.92477 90.9222 5.89544C90.7609 5.85144 90.4749 5.82944 90.0642 5.82944C89.9762 5.82944 89.9322 5.7121 89.9322 5.47744C89.9322 5.25744 89.9762 5.14744 90.0642 5.14744C90.2549 5.14744 90.5482 5.15477 90.9442 5.16944C91.3549 5.16944 91.7729 5.17677 92.1982 5.19144C92.6236 5.19144 92.9462 5.19144 93.1662 5.19144C93.1662 5.19144 93.2982 5.3601 93.5622 5.69744C93.8262 6.0201 94.1636 6.45277 94.5742 6.99544C94.9996 7.52344 95.4616 8.10277 95.9602 8.73344C96.4589 9.3641 96.9429 9.98744 97.4122 10.6034C97.8816 11.2048 98.2996 11.7401 98.6662 12.2094C99.0329 12.6788 99.2969 13.0161 99.4582 13.2214H99.5022C99.4876 11.7401 99.4729 10.4421 99.4582 9.32744C99.4436 8.1981 99.4069 7.2521 99.3482 6.48944C99.3042 6.04944 99.1869 5.82944 98.9962 5.82944H98.2262C98.1676 5.82944 98.1236 5.79277 98.0942 5.71944C98.0796 5.63144 98.0722 5.54344 98.0722 5.45544C98.0722 5.3821 98.0869 5.3161 98.1162 5.25744C98.1456 5.1841 98.1822 5.14744 98.2262 5.14744C98.4462 5.14744 98.7396 5.15477 99.1062 5.16944C99.4729 5.1841 99.7882 5.19144 100.052 5.19144C100.36 5.19144 100.705 5.1841 101.086 5.16944C101.468 5.15477 101.798 5.14744 102.076 5.14744C102.106 5.14744 102.135 5.1841 102.164 5.25744C102.194 5.3161 102.208 5.3821 102.208 5.45544C102.208 5.67544 102.164 5.78544 102.076 5.78544H101.306C101.086 5.78544 100.947 5.8441 100.888 5.96144C100.83 6.07877 100.786 6.2621 100.756 6.51144C100.712 6.9221 100.668 7.6041 100.624 8.55744C100.595 9.4961 100.566 10.5961 100.536 11.8574C100.522 13.1188 100.514 14.4461 100.514 15.8394C100.514 15.9861 100.382 16.0594 100.118 16.0594C99.8982 16.0594 99.7369 16.0081 99.6342 15.9054ZM131.99 17.7314C132.092 17.6141 132.217 17.6141 132.364 17.7314C132.51 17.8488 132.547 17.9661 132.474 18.0834C132.283 18.3621 132.063 18.6848 131.814 19.0514C131.564 19.4181 131.271 19.7701 130.934 20.1074C130.611 20.4594 130.237 20.7454 129.812 20.9654C129.401 21.1854 128.939 21.2954 128.426 21.2954C127.604 21.2954 126.834 21.1268 126.116 20.7894C125.397 20.4668 124.708 20.0561 124.048 19.5574C123.388 19.0588 122.72 18.5528 122.046 18.0394C121.386 17.5408 120.696 17.1008 119.978 16.7194C119.259 16.3528 118.489 16.1328 117.668 16.0594C116.568 16.0594 115.534 15.8614 114.566 15.4654C113.598 15.0694 112.747 14.5194 112.014 13.8154C111.28 13.1114 110.701 12.2974 110.276 11.3734C109.865 10.4494 109.66 9.4521 109.66 8.38144C109.66 7.32544 109.865 6.33544 110.276 5.41144C110.701 4.48744 111.28 3.67344 112.014 2.96944C112.747 2.26544 113.598 1.71544 114.566 1.31944C115.534 0.923437 116.568 0.725437 117.668 0.725437C118.768 0.725437 119.802 0.923437 120.77 1.31944C121.738 1.71544 122.588 2.26544 123.322 2.96944C124.055 3.67344 124.627 4.48744 125.038 5.41144C125.463 6.33544 125.676 7.32544 125.676 8.38144C125.676 9.5401 125.426 10.6181 124.928 11.6154C124.444 12.6128 123.776 13.4708 122.926 14.1894C122.075 14.8934 121.1 15.4068 120 15.7294C120.674 15.7294 121.312 15.8394 121.914 16.0594C122.53 16.2941 123.124 16.5801 123.696 16.9174C124.282 17.2548 124.862 17.5921 125.434 17.9294C126.02 18.2668 126.622 18.5454 127.238 18.7654C127.868 19.0001 128.543 19.1174 129.262 19.1174C129.819 19.1174 130.296 19.0001 130.692 18.7654C131.102 18.5454 131.535 18.2008 131.99 17.7314ZM117.668 1.73744C116.626 1.73744 115.71 2.0381 114.918 2.63944C114.14 3.2261 113.532 4.02544 113.092 5.03744C112.652 6.03477 112.432 7.14944 112.432 8.38144C112.432 9.61344 112.652 10.7354 113.092 11.7474C113.532 12.7594 114.14 13.5661 114.918 14.1674C115.71 14.7541 116.626 15.0474 117.668 15.0474C118.709 15.0474 119.618 14.7541 120.396 14.1674C121.188 13.5661 121.804 12.7594 122.244 11.7474C122.684 10.7354 122.904 9.61344 122.904 8.38144C122.904 7.14944 122.684 6.03477 122.244 5.03744C121.804 4.02544 121.188 3.2261 120.396 2.63944C119.618 2.0381 118.709 1.73744 117.668 1.73744ZM130.938 13.4194C130.938 14.0354 130.982 14.4681 131.07 14.7174C131.158 14.9668 131.261 15.0914 131.378 15.0914H132.478C132.522 15.0914 132.559 15.1281 132.588 15.2014C132.632 15.2748 132.654 15.3628 132.654 15.4654C132.654 15.5388 132.64 15.6121 132.61 15.6854C132.596 15.7441 132.566 15.7734 132.522 15.7734C132.258 15.7734 131.914 15.7734 131.488 15.7734C131.063 15.7588 130.557 15.7514 129.97 15.7514C129.266 15.7514 128.768 15.7588 128.474 15.7734C128.181 15.8028 127.946 15.8174 127.77 15.8174C127.712 15.8174 127.668 15.7734 127.638 15.6854C127.624 15.5974 127.616 15.5241 127.616 15.4654C127.616 15.3921 127.624 15.3261 127.638 15.2674C127.668 15.1941 127.704 15.1574 127.748 15.1574H128.738C128.9 15.1574 128.995 15.1208 129.024 15.0474C129.054 14.9741 129.068 14.7981 129.068 14.5194V7.58944C129.068 6.97344 129.024 6.5261 128.936 6.24744C128.863 5.96877 128.76 5.82944 128.628 5.82944H127.836C127.66 5.82944 127.572 5.71944 127.572 5.49944C127.572 5.26477 127.653 5.14744 127.814 5.14744C128.093 5.14744 128.423 5.1621 128.804 5.19144C129.186 5.2061 129.574 5.2061 129.97 5.19144C130.234 5.19144 130.542 5.19144 130.894 5.19144C131.261 5.17677 131.576 5.16944 131.84 5.16944C132.119 5.15477 132.258 5.14744 132.258 5.14744C132.302 5.14744 132.339 5.1841 132.368 5.25744C132.398 5.33077 132.412 5.4041 132.412 5.47744C132.412 5.68277 132.354 5.78544 132.236 5.78544H131.224C131.122 5.78544 131.048 5.80744 131.004 5.85144C130.96 5.89544 130.938 5.99077 130.938 6.13744V13.4194ZM144.658 12.5174C144.658 13.3388 144.666 13.9914 144.68 14.4754C144.71 14.9448 144.739 15.3041 144.768 15.5534C144.812 15.7881 144.842 15.9568 144.856 16.0594C144.886 16.1768 144.9 16.2868 144.9 16.3894C144.9 16.5214 144.827 16.5874 144.68 16.5874C144.563 16.5874 144.46 16.4848 144.372 16.2794C144.299 16.0741 144.226 15.8761 144.152 15.6854C144.079 15.4801 143.976 15.3774 143.844 15.3774C143.786 15.3774 143.61 15.4361 143.316 15.5534C143.023 15.6708 142.649 15.7808 142.194 15.8834C141.754 16.0008 141.285 16.0594 140.786 16.0594C139.598 16.0594 138.513 15.8614 137.53 15.4654C136.562 15.0694 135.792 14.4901 135.22 13.7274C134.648 12.9501 134.362 11.9968 134.362 10.8674C134.362 9.89944 134.546 9.04877 134.912 8.31544C135.279 7.56744 135.77 6.9441 136.386 6.44544C137.017 5.9321 137.721 5.55077 138.498 5.30144C139.29 5.03744 140.112 4.90544 140.962 4.90544C141.52 4.90544 141.982 4.95677 142.348 5.05944C142.715 5.1621 143.118 5.30877 143.558 5.49944V5.14744C143.558 5.0301 143.654 4.97144 143.844 4.97144C144.035 4.97144 144.13 5.0301 144.13 5.14744C144.13 5.54344 144.138 5.9541 144.152 6.37944C144.182 6.7901 144.226 7.1861 144.284 7.56744C144.314 7.68477 144.204 7.74344 143.954 7.74344C143.793 7.74344 143.698 7.6921 143.668 7.58944L143.558 6.88544C143.104 6.4601 142.634 6.15944 142.15 5.98344C141.666 5.80744 141.153 5.71944 140.61 5.71944C139.921 5.71944 139.268 5.90277 138.652 6.26944C138.036 6.6361 137.538 7.17144 137.156 7.87544C136.775 8.57944 136.584 9.44477 136.584 10.4714C136.584 11.4248 136.768 12.2608 137.134 12.9794C137.501 13.6981 138 14.2628 138.63 14.6734C139.261 15.0694 139.972 15.2674 140.764 15.2674C141.204 15.2674 141.571 15.2161 141.864 15.1134C142.172 15.0108 142.4 14.9154 142.546 14.8274C142.708 14.7248 142.788 14.6734 142.788 14.6734V13.1994C142.788 12.5834 142.752 12.1948 142.678 12.0334C142.605 11.8721 142.532 11.7914 142.458 11.7914H140.764C140.662 11.7914 140.61 11.6814 140.61 11.4614C140.61 11.4028 140.618 11.3368 140.632 11.2634C140.662 11.1901 140.706 11.1534 140.764 11.1534C140.984 11.1534 141.27 11.1534 141.622 11.1534C141.989 11.1534 142.348 11.1608 142.7 11.1754C143.052 11.1754 143.338 11.1754 143.558 11.1754C144.248 11.1754 144.732 11.1681 145.01 11.1534C145.304 11.1388 145.575 11.1314 145.824 11.1314C145.868 11.1314 145.905 11.1681 145.934 11.2414C145.964 11.3148 145.978 11.3881 145.978 11.4614C145.978 11.5201 145.964 11.5934 145.934 11.6814C145.92 11.7548 145.883 11.7914 145.824 11.7914H145.34C145.062 11.7914 144.878 11.8428 144.79 11.9454C144.702 12.0481 144.658 12.2388 144.658 12.5174ZM153.105 4.90544C153.882 4.90544 154.623 5.0521 155.327 5.34544C156.046 5.63877 156.676 6.0421 157.219 6.55544C157.776 7.06877 158.209 7.66277 158.517 8.33744C158.84 8.99744 159.001 9.70144 159.001 10.4494C159.001 11.2121 158.84 11.9308 158.517 12.6054C158.209 13.2801 157.776 13.8814 157.219 14.4094C156.676 14.9228 156.046 15.3261 155.327 15.6194C154.623 15.9128 153.882 16.0594 153.105 16.0594C152.328 16.0594 151.58 15.9128 150.861 15.6194C150.157 15.3261 149.526 14.9228 148.969 14.4094C148.426 13.8814 147.994 13.2801 147.671 12.6054C147.363 11.9308 147.209 11.2121 147.209 10.4494C147.209 9.70144 147.363 8.99744 147.671 8.33744C147.994 7.66277 148.426 7.06877 148.969 6.55544C149.526 6.0421 150.157 5.63877 150.861 5.34544C151.58 5.0521 152.328 4.90544 153.105 4.90544ZM153.105 5.69744C152.357 5.69744 151.704 5.91744 151.147 6.35744C150.604 6.78277 150.179 7.35477 149.871 8.07344C149.563 8.7921 149.409 9.5841 149.409 10.4494C149.409 11.3148 149.563 12.1141 149.871 12.8474C150.179 13.5808 150.604 14.1674 151.147 14.6074C151.704 15.0474 152.357 15.2674 153.105 15.2674C153.853 15.2674 154.498 15.0474 155.041 14.6074C155.598 14.1674 156.031 13.5808 156.339 12.8474C156.647 12.1141 156.801 11.3148 156.801 10.4494C156.801 9.5841 156.647 8.7921 156.339 8.07344C156.031 7.35477 155.598 6.78277 155.041 6.35744C154.498 5.91744 153.853 5.69744 153.105 5.69744ZM170.404 15.9054C170.404 15.9054 170.242 15.7221 169.92 15.3554C169.612 14.9741 169.201 14.4754 168.688 13.8594C168.174 13.2434 167.602 12.5614 166.972 11.8134C166.341 11.0654 165.71 10.3101 165.08 9.54744C164.449 8.7701 163.862 8.05877 163.32 7.41344H163.254C163.283 8.93877 163.305 10.2148 163.32 11.2414C163.349 12.2681 163.371 13.1628 163.386 13.9254C163.386 14.2041 163.415 14.4681 163.474 14.7174C163.532 14.9521 163.613 15.0694 163.716 15.0694H164.596C164.64 15.0694 164.669 15.1208 164.684 15.2234C164.713 15.3261 164.728 15.4214 164.728 15.5094C164.728 15.5681 164.72 15.6268 164.706 15.6854C164.691 15.7294 164.654 15.7514 164.596 15.7514H162.77C162.418 15.7514 162.051 15.7588 161.67 15.7734C161.288 15.7881 160.988 15.7954 160.768 15.7954C160.738 15.7954 160.709 15.7661 160.68 15.7074C160.665 15.6488 160.658 15.5901 160.658 15.5314C160.658 15.4581 160.665 15.3774 160.68 15.2894C160.709 15.2014 160.738 15.1574 160.768 15.1574H161.296C161.545 15.1574 161.721 15.1281 161.824 15.0694C161.926 15.0108 161.985 14.8934 162 14.7174C162.044 14.1894 162.088 13.5734 162.132 12.8694C162.176 12.1654 162.212 11.4321 162.242 10.6694C162.271 9.90677 162.293 9.15877 162.308 8.42544C162.322 7.67744 162.33 6.99544 162.33 6.37944L162.22 6.24744C162.044 6.0421 161.868 5.92477 161.692 5.89544C161.53 5.85144 161.244 5.82944 160.834 5.82944C160.746 5.82944 160.702 5.7121 160.702 5.47744C160.702 5.25744 160.746 5.14744 160.834 5.14744C161.024 5.14744 161.318 5.15477 161.714 5.16944C162.124 5.16944 162.542 5.17677 162.968 5.19144C163.393 5.19144 163.716 5.19144 163.936 5.19144C163.936 5.19144 164.068 5.3601 164.332 5.69744C164.596 6.0201 164.933 6.45277 165.344 6.99544C165.769 7.52344 166.231 8.10277 166.73 8.73344C167.228 9.3641 167.712 9.98744 168.182 10.6034C168.651 11.2048 169.069 11.7401 169.436 12.2094C169.802 12.6788 170.066 13.0161 170.228 13.2214H170.272C170.257 11.7401 170.242 10.4421 170.228 9.32744C170.213 8.1981 170.176 7.2521 170.118 6.48944C170.074 6.04944 169.956 5.82944 169.766 5.82944H168.996C168.937 5.82944 168.893 5.79277 168.864 5.71944C168.849 5.63144 168.842 5.54344 168.842 5.45544C168.842 5.3821 168.856 5.3161 168.886 5.25744C168.915 5.1841 168.952 5.14744 168.996 5.14744C169.216 5.14744 169.509 5.15477 169.876 5.16944C170.242 5.1841 170.558 5.19144 170.822 5.19144C171.13 5.19144 171.474 5.1841 171.856 5.16944C172.237 5.15477 172.567 5.14744 172.846 5.14744C172.875 5.14744 172.904 5.1841 172.934 5.25744C172.963 5.3161 172.978 5.3821 172.978 5.45544C172.978 5.67544 172.934 5.78544 172.846 5.78544H172.076C171.856 5.78544 171.716 5.8441 171.658 5.96144C171.599 6.07877 171.555 6.2621 171.526 6.51144C171.482 6.9221 171.438 7.6041 171.394 8.55744C171.364 9.4961 171.335 10.5961 171.306 11.8574C171.291 13.1188 171.284 14.4461 171.284 15.8394C171.284 15.9861 171.152 16.0594 170.888 16.0594C170.668 16.0594 170.506 16.0081 170.404 15.9054ZM184.834 12.5174C184.834 13.3388 184.842 13.9914 184.856 14.4754C184.886 14.9448 184.915 15.3041 184.944 15.5534C184.988 15.7881 185.018 15.9568 185.032 16.0594C185.062 16.1768 185.076 16.2868 185.076 16.3894C185.076 16.5214 185.003 16.5874 184.856 16.5874C184.739 16.5874 184.636 16.4848 184.548 16.2794C184.475 16.0741 184.402 15.8761 184.328 15.6854C184.255 15.4801 184.152 15.3774 184.02 15.3774C183.962 15.3774 183.786 15.4361 183.492 15.5534C183.199 15.6708 182.825 15.7808 182.37 15.8834C181.93 16.0008 181.461 16.0594 180.962 16.0594C179.774 16.0594 178.689 15.8614 177.706 15.4654C176.738 15.0694 175.968 14.4901 175.396 13.7274C174.824 12.9501 174.538 11.9968 174.538 10.8674C174.538 9.89944 174.722 9.04877 175.088 8.31544C175.455 7.56744 175.946 6.9441 176.562 6.44544C177.193 5.9321 177.897 5.55077 178.674 5.30144C179.466 5.03744 180.288 4.90544 181.138 4.90544C181.696 4.90544 182.158 4.95677 182.524 5.05944C182.891 5.1621 183.294 5.30877 183.734 5.49944V5.14744C183.734 5.0301 183.83 4.97144 184.02 4.97144C184.211 4.97144 184.306 5.0301 184.306 5.14744C184.306 5.54344 184.314 5.9541 184.328 6.37944C184.358 6.7901 184.402 7.1861 184.46 7.56744C184.49 7.68477 184.38 7.74344 184.13 7.74344C183.969 7.74344 183.874 7.6921 183.844 7.58944L183.734 6.88544C183.28 6.4601 182.81 6.15944 182.326 5.98344C181.842 5.80744 181.329 5.71944 180.786 5.71944C180.097 5.71944 179.444 5.90277 178.828 6.26944C178.212 6.6361 177.714 7.17144 177.332 7.87544C176.951 8.57944 176.76 9.44477 176.76 10.4714C176.76 11.4248 176.944 12.2608 177.31 12.9794C177.677 13.6981 178.176 14.2628 178.806 14.6734C179.437 15.0694 180.148 15.2674 180.94 15.2674C181.38 15.2674 181.747 15.2161 182.04 15.1134C182.348 15.0108 182.576 14.9154 182.722 14.8274C182.884 14.7248 182.964 14.6734 182.964 14.6734V13.1994C182.964 12.5834 182.928 12.1948 182.854 12.0334C182.781 11.8721 182.708 11.7914 182.634 11.7914H180.94C180.838 11.7914 180.786 11.6814 180.786 11.4614C180.786 11.4028 180.794 11.3368 180.808 11.2634C180.838 11.1901 180.882 11.1534 180.94 11.1534C181.16 11.1534 181.446 11.1534 181.798 11.1534C182.165 11.1534 182.524 11.1608 182.876 11.1754C183.228 11.1754 183.514 11.1754 183.734 11.1754C184.424 11.1754 184.908 11.1681 185.186 11.1534C185.48 11.1388 185.751 11.1314 186 11.1314C186.044 11.1314 186.081 11.1681 186.11 11.2414C186.14 11.3148 186.154 11.3881 186.154 11.4614C186.154 11.5201 186.14 11.5934 186.11 11.6814C186.096 11.7548 186.059 11.7914 186 11.7914H185.516C185.238 11.7914 185.054 11.8428 184.966 11.9454C184.878 12.0481 184.834 12.2388 184.834 12.5174Z" fill="white"/>
</svg>
