<svg width="187" height="22" viewBox="0 0 187 22" fill="none" xmlns="http://www.w3.org/2000/svg">
<path d="M8.426 13.338C8.426 13.8953 8.448 14.3133 8.492 14.592C8.55067 14.8707 8.61667 15.054 8.69 15.142C8.76333 15.23 8.82933 15.274 8.888 15.274H10.164C10.2813 15.274 10.34 15.4133 10.34 15.692C10.34 15.7507 10.3253 15.8167 10.296 15.89C10.2813 15.9633 10.2373 16 10.164 16C9.70933 16 9.24 16 8.756 16C8.28667 15.9853 7.832 15.978 7.392 15.978C6.776 15.978 6.28467 15.9853 5.918 16C5.55133 16 5.25067 16.0073 5.016 16.022C4.78133 16.0367 4.54667 16.044 4.312 16.044C4.25333 16.044 4.20933 16.0073 4.18 15.934C4.15067 15.8607 4.136 15.78 4.136 15.692C4.136 15.5893 4.15067 15.5013 4.18 15.428C4.20933 15.34 4.25333 15.296 4.312 15.296H5.258C5.63933 15.296 5.88133 15.2227 5.984 15.076C6.10133 14.9293 6.16 14.6653 6.16 14.284V4.098C6.16 2.80733 6.01333 2.162 5.72 2.162H5.258C4.58333 2.162 3.95267 2.19133 3.366 2.25C2.77933 2.294 2.23667 2.37467 1.738 2.492C1.45933 2.58 1.254 2.8 1.122 3.152C0.99 3.504 0.894667 3.82667 0.836 4.12C0.821333 4.19333 0.777333 4.24467 0.704 4.274C0.645333 4.30333 0.579333 4.318 0.506 4.318C0.418 4.318 0.322667 4.30333 0.22 4.274C0.132 4.23 0.0953333 4.17867 0.11 4.12C0.183333 3.66533 0.227333 3.13733 0.242 2.536C0.271333 1.92 0.286 1.33333 0.286 0.775999C0.286 0.717333 0.337333 0.673333 0.44 0.644C0.542667 0.599999 0.638 0.577999 0.726 0.577999C0.902 0.577999 0.99 0.643999 0.99 0.775999V1.194C1.37133 1.20867 1.76733 1.22333 2.178 1.238C2.60333 1.238 3.124 1.238 3.74 1.238H10.318C11.11 1.238 11.7627 1.238 12.276 1.238C12.7893 1.22333 13.2293 1.20867 13.596 1.194V0.775999C13.596 0.643999 13.684 0.577999 13.86 0.577999C13.948 0.577999 14.0433 0.599999 14.146 0.644C14.2487 0.673333 14.3 0.717333 14.3 0.775999C14.3 1.33333 14.3073 1.92 14.322 2.536C14.3513 3.13733 14.4027 3.66533 14.476 4.12C14.4907 4.17867 14.4467 4.23 14.344 4.274C14.256 4.30333 14.168 4.318 14.08 4.318C14.0067 4.318 13.9333 4.30333 13.86 4.274C13.8013 4.24467 13.7647 4.19333 13.75 4.12C13.6913 3.82667 13.596 3.504 13.464 3.152C13.3467 2.8 13.1413 2.58 12.848 2.492C12.3493 2.36 11.792 2.27933 11.176 2.25C10.56 2.206 9.89267 2.17667 9.174 2.162C8.866 2.17667 8.66067 2.26467 8.558 2.426C8.47 2.57267 8.426 2.822 8.426 3.174V13.338ZM18.4582 5.33C18.5168 5.198 18.6635 5.132 18.8982 5.132C19.1182 5.132 19.2575 5.20533 19.3162 5.352C19.3895 5.67467 19.5288 6.122 19.7342 6.694C19.9542 7.266 20.2108 7.91133 20.5042 8.63C20.7975 9.334 21.0982 10.06 21.4062 10.808C21.7288 11.5413 22.0368 12.2453 22.3302 12.92C22.6382 13.58 22.9022 14.1447 23.1222 14.614C23.2982 14.9807 23.4595 15.2153 23.6062 15.318C23.7528 15.406 23.9802 15.45 24.2882 15.45C24.3762 15.45 24.4202 15.538 24.4202 15.714C24.4202 15.7873 24.4128 15.8607 24.3982 15.934C24.3835 16.0073 24.3542 16.044 24.3102 16.044C23.8555 16.044 23.4742 16.0367 23.1662 16.022C22.8582 16.0073 22.5355 16 22.1982 16C21.9195 16 21.5822 16.0073 21.1862 16.022C20.7902 16.0367 20.3355 16.044 19.8222 16.044C19.7635 16.044 19.7268 16.0147 19.7122 15.956C19.6975 15.8827 19.6902 15.8167 19.6902 15.758C19.6902 15.5673 19.7342 15.472 19.8222 15.472H20.8782C21.0395 15.472 21.1202 15.406 21.1202 15.274C21.1202 15.23 21.0615 15.0467 20.9442 14.724C20.8268 14.4013 20.6728 13.9907 20.4822 13.492C20.3062 12.9933 20.1082 12.458 19.8882 11.886H16.8302C16.5222 12.6487 16.2655 13.3087 16.0602 13.866C15.8548 14.4233 15.7522 14.8047 15.7522 15.01C15.7522 15.186 15.7815 15.3033 15.8402 15.362C15.8988 15.4207 15.9575 15.45 16.0162 15.45H16.9182C17.0355 15.45 17.0942 15.538 17.0942 15.714C17.0942 15.7873 17.0795 15.8607 17.0502 15.934C17.0355 16.0073 17.0062 16.044 16.9622 16.044C16.5955 16.044 16.3022 16.0367 16.0822 16.022C15.8768 16.022 15.6862 16.0147 15.5102 16C15.3488 16 15.1582 16 14.9382 16C14.6742 16 14.4102 16.0073 14.1462 16.022C13.8968 16.0367 13.5815 16.044 13.2002 16.044C13.1415 16.044 13.0975 16.0147 13.0682 15.956C13.0535 15.8827 13.0462 15.8167 13.0462 15.758C13.0462 15.5673 13.0975 15.472 13.2002 15.472H13.9042C14.0655 15.472 14.1828 15.406 14.2562 15.274C14.4028 15.0393 14.6082 14.6287 14.8722 14.042C15.1508 13.4407 15.4588 12.744 15.7962 11.952C16.1335 11.16 16.4708 10.346 16.8082 9.51C17.1602 8.674 17.4828 7.88933 17.7762 7.156C18.0695 6.408 18.2968 5.79933 18.4582 5.33ZM19.6022 11.138C19.3968 10.5367 19.1915 9.94267 18.9862 9.356C18.7955 8.76933 18.6195 8.24867 18.4582 7.794H18.3922C18.2015 8.33667 17.9962 8.90133 17.7762 9.488C17.5562 10.0747 17.3435 10.6247 17.1382 11.138H19.6022ZM28.8446 13.646C28.8446 14.262 28.8886 14.6947 28.9766 14.944C29.0646 15.1933 29.1672 15.318 29.2846 15.318H30.3846C30.4286 15.318 30.4652 15.3547 30.4946 15.428C30.5386 15.5013 30.5606 15.5893 30.5606 15.692C30.5606 15.7653 30.5459 15.8387 30.5166 15.912C30.5019 15.9707 30.4726 16 30.4286 16C30.1646 16 29.8199 16 29.3946 16C28.9692 15.9853 28.4632 15.978 27.8766 15.978C27.1726 15.978 26.6739 15.9853 26.3806 16C26.0872 16.0293 25.8526 16.044 25.6766 16.044C25.6179 16.044 25.5739 16 25.5446 15.912C25.5299 15.824 25.5226 15.7507 25.5226 15.692C25.5226 15.6187 25.5299 15.5527 25.5446 15.494C25.5739 15.4207 25.6106 15.384 25.6546 15.384H26.6446C26.8059 15.384 26.9012 15.3473 26.9306 15.274C26.9599 15.2007 26.9746 15.0247 26.9746 14.746V7.816C26.9746 7.2 26.9306 6.75267 26.8426 6.474C26.7692 6.19533 26.6666 6.056 26.5346 6.056H25.7426C25.5666 6.056 25.4786 5.946 25.4786 5.726C25.4786 5.49133 25.5592 5.374 25.7206 5.374C25.9992 5.374 26.3292 5.38867 26.7106 5.418C27.0919 5.43267 27.4806 5.43267 27.8766 5.418C28.1406 5.418 28.4486 5.418 28.8006 5.418C29.1672 5.40333 29.4826 5.396 29.7466 5.396C30.0252 5.38133 30.1646 5.374 30.1646 5.374C30.2086 5.374 30.2452 5.41067 30.2746 5.484C30.3039 5.55733 30.3186 5.63067 30.3186 5.704C30.3186 5.90933 30.2599 6.012 30.1426 6.012H29.1306C29.0279 6.012 28.9546 6.034 28.9106 6.078C28.8666 6.122 28.8446 6.21733 28.8446 6.364V13.646ZM40.4475 3.856C40.4475 3.284 40.4182 2.866 40.3595 2.602C40.3155 2.32333 40.2568 2.14 40.1835 2.052C40.1248 1.964 40.0588 1.92 39.9855 1.92H38.7095C38.5922 1.92 38.5335 1.78067 38.5335 1.502C38.5335 1.42867 38.5408 1.36267 38.5555 1.304C38.5848 1.23067 38.6362 1.194 38.7095 1.194C39.1788 1.194 39.6482 1.20133 40.1175 1.216C40.5868 1.216 41.0415 1.216 41.4815 1.216C42.1122 1.216 42.6035 1.216 42.9555 1.216C43.3222 1.20133 43.6228 1.18667 43.8575 1.172C44.0922 1.15733 44.3268 1.15 44.5615 1.15C44.6348 1.15 44.6788 1.18667 44.6935 1.26C44.7228 1.33333 44.7375 1.414 44.7375 1.502C44.7375 1.60467 44.7228 1.7 44.6935 1.788C44.6642 1.86133 44.6202 1.898 44.5615 1.898H43.6155C43.2488 1.898 43.0068 1.97133 42.8895 2.118C42.7722 2.26467 42.7135 2.52867 42.7135 2.91V13.096C42.7135 14.1373 42.6768 15.098 42.6035 15.978C42.5302 16.858 42.3688 17.606 42.1195 18.222C41.8262 18.926 41.4155 19.564 40.8875 20.136C40.3742 20.708 39.7728 21.1627 39.0835 21.5C38.3942 21.8373 37.6388 22.006 36.8175 22.006C36.7148 22.006 36.5755 21.984 36.3995 21.94C36.2088 21.9107 36.0402 21.8373 35.8935 21.72C35.7322 21.6027 35.6515 21.434 35.6515 21.214C35.6515 20.6567 35.9742 20.2533 36.6195 20.004C36.9422 20.1947 37.3088 20.334 37.7195 20.422C38.1302 20.5247 38.4675 20.576 38.7315 20.576C39.0102 20.576 39.2302 20.51 39.3915 20.378C39.5528 20.246 39.6848 20.0847 39.7875 19.894C39.9342 19.586 40.0515 19.1387 40.1395 18.552C40.2275 17.9653 40.2935 17.3347 40.3375 16.66C40.3815 15.9853 40.4108 15.3473 40.4255 14.746C40.4402 14.13 40.4475 13.646 40.4475 13.294V3.856ZM49.3622 13.646C49.3622 14.262 49.4062 14.6947 49.4942 14.944C49.5822 15.1933 49.6848 15.318 49.8022 15.318H50.9022C50.9462 15.318 50.9828 15.3547 51.0122 15.428C51.0562 15.5013 51.0782 15.5893 51.0782 15.692C51.0782 15.7653 51.0635 15.8387 51.0342 15.912C51.0195 15.9707 50.9902 16 50.9462 16C50.6822 16 50.3375 16 49.9122 16C49.4868 15.9853 48.9808 15.978 48.3942 15.978C47.6902 15.978 47.1915 15.9853 46.8982 16C46.6048 16.0293 46.3702 16.044 46.1942 16.044C46.1355 16.044 46.0915 16 46.0622 15.912C46.0475 15.824 46.0402 15.7507 46.0402 15.692C46.0402 15.6187 46.0475 15.5527 46.0622 15.494C46.0915 15.4207 46.1282 15.384 46.1722 15.384H47.1622C47.3235 15.384 47.4188 15.3473 47.4482 15.274C47.4775 15.2007 47.4922 15.0247 47.4922 14.746V7.816C47.4922 7.2 47.4482 6.75267 47.3602 6.474C47.2868 6.19533 47.1842 6.056 47.0522 6.056H46.2602C46.0842 6.056 45.9962 5.946 45.9962 5.726C45.9962 5.49133 46.0768 5.374 46.2382 5.374C46.5168 5.374 46.8468 5.38867 47.2282 5.418C47.6095 5.43267 47.9982 5.43267 48.3942 5.418C48.6582 5.418 48.9662 5.418 49.3182 5.418C49.6848 5.40333 50.0002 5.396 50.2642 5.396C50.5428 5.38133 50.6822 5.374 50.6822 5.374C50.7262 5.374 50.7628 5.41067 50.7922 5.484C50.8215 5.55733 50.8362 5.63067 50.8362 5.704C50.8362 5.90933 50.7775 6.012 50.6602 6.012H49.6482C49.5455 6.012 49.4722 6.034 49.4282 6.078C49.3842 6.122 49.3622 6.21733 49.3622 6.364V13.646ZM68.0491 15.692C67.9758 15.8093 67.8438 15.868 67.6531 15.868C67.4624 15.868 67.3378 15.8093 67.2791 15.692C67.1471 15.4867 66.9638 15.1273 66.7291 14.614C66.4944 14.1007 66.2231 13.492 65.9151 12.788C65.6218 12.0693 65.3064 11.3067 64.9691 10.5C64.6464 9.69333 64.3311 8.894 64.0231 8.102C63.7151 7.31 63.4291 6.56933 63.1651 5.88C62.9011 5.176 62.6884 4.58933 62.5271 4.12H62.4391C62.2778 6.452 62.1458 8.37333 62.0431 9.884C61.9551 11.38 61.9038 12.5167 61.8891 13.294C61.8744 14.0567 61.9184 14.5773 62.0211 14.856C62.1238 15.1347 62.2631 15.274 62.4391 15.274H63.4071C63.5098 15.274 63.5831 15.3107 63.6271 15.384C63.6711 15.4573 63.6931 15.538 63.6931 15.626C63.6931 15.714 63.6711 15.802 63.6271 15.89C63.5831 15.9633 63.5098 16 63.4071 16C62.8644 16 62.4318 16 62.1091 16C61.8011 15.9853 61.4638 15.978 61.0971 15.978C60.5251 15.978 59.9751 15.9853 59.4471 16C58.9338 16.0293 58.5598 16.044 58.3251 16.044C58.2664 16.044 58.2151 16.0073 58.1711 15.934C58.1418 15.846 58.1271 15.758 58.1271 15.67C58.1271 15.582 58.1418 15.5013 58.1711 15.428C58.2151 15.34 58.2664 15.296 58.3251 15.296H59.0511C59.4031 15.296 59.6598 15.2667 59.8211 15.208C59.9971 15.1493 60.1144 14.9807 60.1731 14.702C60.2171 14.4087 60.2758 13.976 60.3491 13.404C60.4224 12.8173 60.5031 12.15 60.5911 11.402C60.6791 10.6393 60.7671 9.862 60.8551 9.07C60.9431 8.278 61.0238 7.52267 61.0971 6.804C61.1704 6.08533 61.2291 5.46933 61.2731 4.956C61.3171 4.44267 61.3391 4.098 61.3391 3.922C61.3538 3.14467 61.3098 2.61667 61.2071 2.338C61.1191 2.04467 60.9724 1.898 60.7671 1.898H59.6671C59.6084 1.898 59.5644 1.86867 59.5351 1.81C59.5058 1.73667 59.4911 1.66333 59.4911 1.59C59.4911 1.502 59.5058 1.414 59.5351 1.326C59.5644 1.238 59.6084 1.194 59.6671 1.194C59.9898 1.194 60.3858 1.20133 60.8551 1.216C61.3244 1.216 61.8158 1.22333 62.3291 1.238C62.8571 1.238 63.3558 1.238 63.8251 1.238C63.8984 1.48733 64.0451 1.92733 64.2651 2.558C64.4851 3.18867 64.7491 3.944 65.0571 4.824C65.3798 5.68933 65.7244 6.62067 66.0911 7.618C66.4578 8.60067 66.8171 9.576 67.1691 10.544C67.5211 11.512 67.8364 12.4067 68.1151 13.228H68.2031C68.8191 11.6733 69.4351 10.148 70.0511 8.652C70.6671 7.156 71.2244 5.77 71.7231 4.494C72.2364 3.218 72.6251 2.13267 72.8891 1.238C73.5784 1.238 74.2678 1.23067 74.9571 1.216C75.6464 1.18667 76.1891 1.172 76.5851 1.172C76.6438 1.172 76.6878 1.22333 76.7171 1.326C76.7611 1.42867 76.7831 1.524 76.7831 1.612C76.7831 1.80267 76.7171 1.898 76.5851 1.898H75.7491C75.4704 1.898 75.2798 1.986 75.1771 2.162C75.0891 2.338 75.0524 2.60933 75.0671 2.976C75.0671 3.09333 75.0891 3.45267 75.1331 4.054C75.1918 4.64067 75.2651 5.36667 75.3531 6.232C75.4411 7.08267 75.5291 7.992 75.6171 8.96C75.7198 9.91333 75.8151 10.8373 75.9031 11.732C76.0058 12.612 76.0938 13.3673 76.1671 13.998C76.1964 14.306 76.2478 14.5993 76.3211 14.878C76.4091 15.142 76.5264 15.274 76.6731 15.274H78.0591C78.1324 15.274 78.1911 15.3107 78.2351 15.384C78.2791 15.4573 78.3011 15.538 78.3011 15.626C78.3011 15.7287 78.2791 15.8167 78.2351 15.89C78.1911 15.9633 78.1324 16 78.0591 16C77.8244 16 77.5164 16 77.1351 16C76.7538 15.9853 76.3798 15.978 76.0131 15.978C75.6464 15.978 75.3678 15.978 75.1771 15.978C74.9278 15.978 74.6051 15.9853 74.2091 16C73.8131 16 73.4318 16.0073 73.0651 16.022C72.6984 16.0367 72.4418 16.044 72.2951 16.044C72.2364 16.044 72.1924 16 72.1631 15.912C72.1338 15.824 72.1191 15.736 72.1191 15.648C72.1191 15.56 72.1338 15.4793 72.1631 15.406C72.1924 15.3327 72.2364 15.296 72.2951 15.296H73.1311C73.6738 15.296 73.9231 15.0613 73.8791 14.592C73.8644 14.3573 73.8351 13.9833 73.7911 13.47C73.7618 12.9567 73.7178 12.3627 73.6591 11.688C73.6004 10.9987 73.5418 10.28 73.4831 9.532C73.4244 8.784 73.3731 8.06533 73.3291 7.376C73.2851 6.672 73.2411 6.056 73.1971 5.528C73.1678 4.98533 73.1531 4.582 73.1531 4.318H73.0651C72.8451 4.78733 72.5591 5.42533 72.2071 6.232C71.8698 7.024 71.4958 7.88933 71.0851 8.828C70.6891 9.752 70.2931 10.6687 69.8971 11.578C69.5011 12.4873 69.1344 13.3087 68.7971 14.042C68.4744 14.7753 68.2251 15.3253 68.0491 15.692ZM83.0067 10.412C83.476 10.3973 83.9234 10.3753 84.3487 10.346C84.7887 10.3167 85.1554 10.2873 85.4487 10.258C85.742 10.214 85.9034 10.1847 85.9327 10.17L86.0867 9.246C86.116 9.17267 86.2187 9.136 86.3947 9.136C86.4387 9.136 86.4974 9.15067 86.5707 9.18C86.644 9.19467 86.6807 9.23133 86.6807 9.29C86.6514 9.52467 86.6294 9.752 86.6147 9.972C86.6 10.1773 86.5927 10.4047 86.5927 10.654C86.5927 10.874 86.6 11.116 86.6147 11.38C86.6294 11.6293 86.6514 11.8787 86.6807 12.128C86.6807 12.172 86.6367 12.2087 86.5487 12.238C86.4754 12.2527 86.402 12.26 86.3287 12.26C86.27 12.26 86.2114 12.2527 86.1527 12.238C86.1087 12.2233 86.0867 12.2013 86.0867 12.172L85.9107 11.226C85.8814 11.1967 85.72 11.1673 85.4267 11.138C85.148 11.1087 84.796 11.0793 84.3707 11.05C83.9454 11.0207 83.4907 10.9987 83.0067 10.984V13.646C83.0067 14.262 83.0507 14.6947 83.1387 14.944C83.2267 15.1787 83.3294 15.296 83.4467 15.296H84.1507C84.84 15.2813 85.4927 15.2153 86.1087 15.098C86.7394 14.9807 87.2014 14.8193 87.4947 14.614L87.6047 13.756C87.6194 13.712 87.6634 13.6827 87.7367 13.668C87.8247 13.6387 87.898 13.624 87.9567 13.624C88.03 13.624 88.096 13.6313 88.1547 13.646C88.2134 13.6607 88.2354 13.6973 88.2207 13.756C88.162 14.1373 88.1254 14.57 88.1107 15.054C88.096 15.5233 88.0887 15.956 88.0887 16.352C88.0887 16.396 88.052 16.4253 87.9787 16.44C87.92 16.4547 87.8687 16.462 87.8247 16.462C87.766 16.462 87.6927 16.4547 87.6047 16.44C87.5314 16.4253 87.4947 16.396 87.4947 16.352V16H83.5787C82.684 16 81.9947 16 81.5107 16C81.0267 16.0147 80.6674 16.022 80.4327 16.022C80.198 16.0367 80 16.044 79.8387 16.044C79.78 16.044 79.736 16 79.7067 15.912C79.692 15.824 79.6847 15.7507 79.6847 15.692C79.6847 15.6187 79.692 15.5527 79.7067 15.494C79.736 15.4207 79.7727 15.384 79.8167 15.384H80.8067C80.968 15.384 81.0634 15.3473 81.0927 15.274C81.122 15.2007 81.1367 15.0247 81.1367 14.746V7.816C81.1367 7.2 81.0927 6.75267 81.0047 6.474C80.9314 6.19533 80.8287 6.056 80.6967 6.056H79.9047C79.7287 6.056 79.6407 5.946 79.6407 5.726C79.6407 5.49133 79.7214 5.374 79.8827 5.374C80.1614 5.374 80.4987 5.38133 80.8947 5.396C81.3054 5.41067 81.716 5.418 82.1267 5.418H86.6807V5.066C86.6807 5.022 86.71 4.99267 86.7687 4.978C86.8274 4.94867 86.886 4.934 86.9447 4.934C87.0034 4.934 87.0694 4.94867 87.1427 4.978C87.2307 4.99267 87.2747 5.022 87.2747 5.066C87.2747 5.462 87.282 5.89467 87.2967 6.364C87.326 6.83333 87.37 7.22933 87.4287 7.552C87.4434 7.596 87.4214 7.63267 87.3627 7.662C87.304 7.67667 87.2454 7.684 87.1867 7.684C87.128 7.684 87.0474 7.67667 86.9447 7.662C86.8567 7.63267 86.8127 7.596 86.8127 7.552C86.754 7.34667 86.6807 7.12667 86.5927 6.892C86.5194 6.65733 86.3947 6.496 86.2187 6.408C85.94 6.30533 85.5954 6.22467 85.1847 6.166C84.774 6.10733 84.224 6.078 83.5347 6.078C83.3294 6.09267 83.19 6.15867 83.1167 6.276C83.0434 6.37867 83.0067 6.55467 83.0067 6.804V10.412ZM99.6342 16.132C99.6342 16.132 99.4729 15.9487 99.1502 15.582C98.8422 15.2007 98.4316 14.702 97.9182 14.086C97.4049 13.47 96.8329 12.788 96.2022 12.04C95.5716 11.292 94.9409 10.5367 94.3102 9.774C93.6796 8.99667 93.0929 8.28533 92.5502 7.64H92.4842C92.5136 9.16533 92.5356 10.4413 92.5502 11.468C92.5796 12.4947 92.6016 13.3893 92.6162 14.152C92.6162 14.4307 92.6456 14.6947 92.7042 14.944C92.7629 15.1787 92.8436 15.296 92.9462 15.296H93.8262C93.8702 15.296 93.8996 15.3473 93.9142 15.45C93.9436 15.5527 93.9582 15.648 93.9582 15.736C93.9582 15.7947 93.9509 15.8533 93.9362 15.912C93.9216 15.956 93.8849 15.978 93.8262 15.978H92.0002C91.6482 15.978 91.2816 15.9853 90.9002 16C90.5189 16.0147 90.2182 16.022 89.9982 16.022C89.9689 16.022 89.9396 15.9927 89.9102 15.934C89.8956 15.8753 89.8882 15.8167 89.8882 15.758C89.8882 15.6847 89.8956 15.604 89.9102 15.516C89.9396 15.428 89.9689 15.384 89.9982 15.384H90.5262C90.7756 15.384 90.9516 15.3547 91.0542 15.296C91.1569 15.2373 91.2156 15.12 91.2302 14.944C91.2742 14.416 91.3182 13.8 91.3622 13.096C91.4062 12.392 91.4429 11.6587 91.4722 10.896C91.5016 10.1333 91.5236 9.38533 91.5382 8.652C91.5529 7.904 91.5602 7.222 91.5602 6.606L91.4502 6.474C91.2742 6.26867 91.0982 6.15133 90.9222 6.122C90.7609 6.078 90.4749 6.056 90.0642 6.056C89.9762 6.056 89.9322 5.93867 89.9322 5.704C89.9322 5.484 89.9762 5.374 90.0642 5.374C90.2549 5.374 90.5482 5.38133 90.9442 5.396C91.3549 5.396 91.7729 5.40333 92.1982 5.418C92.6236 5.418 92.9462 5.418 93.1662 5.418C93.1662 5.418 93.2982 5.58667 93.5622 5.924C93.8262 6.24667 94.1636 6.67933 94.5742 7.222C94.9996 7.75 95.4616 8.32933 95.9602 8.96C96.4589 9.59067 96.9429 10.214 97.4122 10.83C97.8816 11.4313 98.2996 11.9667 98.6662 12.436C99.0329 12.9053 99.2969 13.2427 99.4582 13.448H99.5022C99.4876 11.9667 99.4729 10.6687 99.4582 9.554C99.4436 8.42467 99.4069 7.47867 99.3482 6.716C99.3042 6.276 99.1869 6.056 98.9962 6.056H98.2262C98.1676 6.056 98.1236 6.01933 98.0942 5.946C98.0796 5.858 98.0722 5.77 98.0722 5.682C98.0722 5.60867 98.0869 5.54267 98.1162 5.484C98.1456 5.41067 98.1822 5.374 98.2262 5.374C98.4462 5.374 98.7396 5.38133 99.1062 5.396C99.4729 5.41067 99.7882 5.418 100.052 5.418C100.36 5.418 100.705 5.41067 101.086 5.396C101.468 5.38133 101.798 5.374 102.076 5.374C102.106 5.374 102.135 5.41067 102.164 5.484C102.194 5.54267 102.208 5.60867 102.208 5.682C102.208 5.902 102.164 6.012 102.076 6.012H101.306C101.086 6.012 100.947 6.07067 100.888 6.188C100.83 6.30533 100.786 6.48867 100.756 6.738C100.712 7.14867 100.668 7.83067 100.624 8.784C100.595 9.72267 100.566 10.8227 100.536 12.084C100.522 13.3453 100.514 14.6727 100.514 16.066C100.514 16.2127 100.382 16.286 100.118 16.286C99.8982 16.286 99.7369 16.2347 99.6342 16.132ZM131.99 17.958C132.092 17.8407 132.217 17.8407 132.364 17.958C132.51 18.0753 132.547 18.1927 132.474 18.31C132.283 18.5887 132.063 18.9113 131.814 19.278C131.564 19.6447 131.271 19.9967 130.934 20.334C130.611 20.686 130.237 20.972 129.812 21.192C129.401 21.412 128.939 21.522 128.426 21.522C127.604 21.522 126.834 21.3533 126.116 21.016C125.397 20.6933 124.708 20.2827 124.048 19.784C123.388 19.2853 122.72 18.7793 122.046 18.266C121.386 17.7673 120.696 17.3273 119.978 16.946C119.259 16.5793 118.489 16.3593 117.668 16.286C116.568 16.286 115.534 16.088 114.566 15.692C113.598 15.296 112.747 14.746 112.014 14.042C111.28 13.338 110.701 12.524 110.276 11.6C109.865 10.676 109.66 9.67867 109.66 8.608C109.66 7.552 109.865 6.562 110.276 5.638C110.701 4.714 111.28 3.9 112.014 3.196C112.747 2.492 113.598 1.942 114.566 1.546C115.534 1.15 116.568 0.952 117.668 0.952C118.768 0.952 119.802 1.15 120.77 1.546C121.738 1.942 122.588 2.492 123.322 3.196C124.055 3.9 124.627 4.714 125.038 5.638C125.463 6.562 125.676 7.552 125.676 8.608C125.676 9.76667 125.426 10.8447 124.928 11.842C124.444 12.8393 123.776 13.6973 122.926 14.416C122.075 15.12 121.1 15.6333 120 15.956C120.674 15.956 121.312 16.066 121.914 16.286C122.53 16.5207 123.124 16.8067 123.696 17.144C124.282 17.4813 124.862 17.8187 125.434 18.156C126.02 18.4933 126.622 18.772 127.238 18.992C127.868 19.2267 128.543 19.344 129.262 19.344C129.819 19.344 130.296 19.2267 130.692 18.992C131.102 18.772 131.535 18.4273 131.99 17.958ZM117.668 1.964C116.626 1.964 115.71 2.26467 114.918 2.866C114.14 3.45267 113.532 4.252 113.092 5.264C112.652 6.26133 112.432 7.376 112.432 8.608C112.432 9.84 112.652 10.962 113.092 11.974C113.532 12.986 114.14 13.7927 114.918 14.394C115.71 14.9807 116.626 15.274 117.668 15.274C118.709 15.274 119.618 14.9807 120.396 14.394C121.188 13.7927 121.804 12.986 122.244 11.974C122.684 10.962 122.904 9.84 122.904 8.608C122.904 7.376 122.684 6.26133 122.244 5.264C121.804 4.252 121.188 3.45267 120.396 2.866C119.618 2.26467 118.709 1.964 117.668 1.964ZM130.938 13.646C130.938 14.262 130.982 14.6947 131.07 14.944C131.158 15.1933 131.261 15.318 131.378 15.318H132.478C132.522 15.318 132.559 15.3547 132.588 15.428C132.632 15.5013 132.654 15.5893 132.654 15.692C132.654 15.7653 132.64 15.8387 132.61 15.912C132.596 15.9707 132.566 16 132.522 16C132.258 16 131.914 16 131.488 16C131.063 15.9853 130.557 15.978 129.97 15.978C129.266 15.978 128.768 15.9853 128.474 16C128.181 16.0293 127.946 16.044 127.77 16.044C127.712 16.044 127.668 16 127.638 15.912C127.624 15.824 127.616 15.7507 127.616 15.692C127.616 15.6187 127.624 15.5527 127.638 15.494C127.668 15.4207 127.704 15.384 127.748 15.384H128.738C128.9 15.384 128.995 15.3473 129.024 15.274C129.054 15.2007 129.068 15.0247 129.068 14.746V7.816C129.068 7.2 129.024 6.75267 128.936 6.474C128.863 6.19533 128.76 6.056 128.628 6.056H127.836C127.66 6.056 127.572 5.946 127.572 5.726C127.572 5.49133 127.653 5.374 127.814 5.374C128.093 5.374 128.423 5.38867 128.804 5.418C129.186 5.43267 129.574 5.43267 129.97 5.418C130.234 5.418 130.542 5.418 130.894 5.418C131.261 5.40333 131.576 5.396 131.84 5.396C132.119 5.38133 132.258 5.374 132.258 5.374C132.302 5.374 132.339 5.41067 132.368 5.484C132.398 5.55733 132.412 5.63067 132.412 5.704C132.412 5.90933 132.354 6.012 132.236 6.012H131.224C131.122 6.012 131.048 6.034 131.004 6.078C130.96 6.122 130.938 6.21733 130.938 6.364V13.646ZM144.658 12.744C144.658 13.5653 144.666 14.218 144.68 14.702C144.71 15.1713 144.739 15.5307 144.768 15.78C144.812 16.0147 144.842 16.1833 144.856 16.286C144.886 16.4033 144.9 16.5133 144.9 16.616C144.9 16.748 144.827 16.814 144.68 16.814C144.563 16.814 144.46 16.7113 144.372 16.506C144.299 16.3007 144.226 16.1027 144.152 15.912C144.079 15.7067 143.976 15.604 143.844 15.604C143.786 15.604 143.61 15.6627 143.316 15.78C143.023 15.8973 142.649 16.0073 142.194 16.11C141.754 16.2273 141.285 16.286 140.786 16.286C139.598 16.286 138.513 16.088 137.53 15.692C136.562 15.296 135.792 14.7167 135.22 13.954C134.648 13.1767 134.362 12.2233 134.362 11.094C134.362 10.126 134.546 9.27533 134.912 8.542C135.279 7.794 135.77 7.17067 136.386 6.672C137.017 6.15867 137.721 5.77733 138.498 5.528C139.29 5.264 140.112 5.132 140.962 5.132C141.52 5.132 141.982 5.18333 142.348 5.286C142.715 5.38867 143.118 5.53533 143.558 5.726V5.374C143.558 5.25667 143.654 5.198 143.844 5.198C144.035 5.198 144.13 5.25667 144.13 5.374C144.13 5.77 144.138 6.18067 144.152 6.606C144.182 7.01667 144.226 7.41267 144.284 7.794C144.314 7.91133 144.204 7.97 143.954 7.97C143.793 7.97 143.698 7.91867 143.668 7.816L143.558 7.112C143.104 6.68667 142.634 6.386 142.15 6.21C141.666 6.034 141.153 5.946 140.61 5.946C139.921 5.946 139.268 6.12933 138.652 6.496C138.036 6.86267 137.538 7.398 137.156 8.102C136.775 8.806 136.584 9.67133 136.584 10.698C136.584 11.6513 136.768 12.4873 137.134 13.206C137.501 13.9247 138 14.4893 138.63 14.9C139.261 15.296 139.972 15.494 140.764 15.494C141.204 15.494 141.571 15.4427 141.864 15.34C142.172 15.2373 142.4 15.142 142.546 15.054C142.708 14.9513 142.788 14.9 142.788 14.9V13.426C142.788 12.81 142.752 12.4213 142.678 12.26C142.605 12.0987 142.532 12.018 142.458 12.018H140.764C140.662 12.018 140.61 11.908 140.61 11.688C140.61 11.6293 140.618 11.5633 140.632 11.49C140.662 11.4167 140.706 11.38 140.764 11.38C140.984 11.38 141.27 11.38 141.622 11.38C141.989 11.38 142.348 11.3873 142.7 11.402C143.052 11.402 143.338 11.402 143.558 11.402C144.248 11.402 144.732 11.3947 145.01 11.38C145.304 11.3653 145.575 11.358 145.824 11.358C145.868 11.358 145.905 11.3947 145.934 11.468C145.964 11.5413 145.978 11.6147 145.978 11.688C145.978 11.7467 145.964 11.82 145.934 11.908C145.92 11.9813 145.883 12.018 145.824 12.018H145.34C145.062 12.018 144.878 12.0693 144.79 12.172C144.702 12.2747 144.658 12.4653 144.658 12.744ZM153.105 5.132C153.882 5.132 154.623 5.27867 155.327 5.572C156.046 5.86533 156.676 6.26867 157.219 6.782C157.776 7.29533 158.209 7.88933 158.517 8.564C158.84 9.224 159.001 9.928 159.001 10.676C159.001 11.4387 158.84 12.1573 158.517 12.832C158.209 13.5067 157.776 14.108 157.219 14.636C156.676 15.1493 156.046 15.5527 155.327 15.846C154.623 16.1393 153.882 16.286 153.105 16.286C152.328 16.286 151.58 16.1393 150.861 15.846C150.157 15.5527 149.526 15.1493 148.969 14.636C148.426 14.108 147.994 13.5067 147.671 12.832C147.363 12.1573 147.209 11.4387 147.209 10.676C147.209 9.928 147.363 9.224 147.671 8.564C147.994 7.88933 148.426 7.29533 148.969 6.782C149.526 6.26867 150.157 5.86533 150.861 5.572C151.58 5.27867 152.328 5.132 153.105 5.132ZM153.105 5.924C152.357 5.924 151.704 6.144 151.147 6.584C150.604 7.00933 150.179 7.58133 149.871 8.3C149.563 9.01867 149.409 9.81067 149.409 10.676C149.409 11.5413 149.563 12.3407 149.871 13.074C150.179 13.8073 150.604 14.394 151.147 14.834C151.704 15.274 152.357 15.494 153.105 15.494C153.853 15.494 154.498 15.274 155.041 14.834C155.598 14.394 156.031 13.8073 156.339 13.074C156.647 12.3407 156.801 11.5413 156.801 10.676C156.801 9.81067 156.647 9.01867 156.339 8.3C156.031 7.58133 155.598 7.00933 155.041 6.584C154.498 6.144 153.853 5.924 153.105 5.924ZM170.404 16.132C170.404 16.132 170.242 15.9487 169.92 15.582C169.612 15.2007 169.201 14.702 168.688 14.086C168.174 13.47 167.602 12.788 166.972 12.04C166.341 11.292 165.71 10.5367 165.08 9.774C164.449 8.99667 163.862 8.28533 163.32 7.64H163.254C163.283 9.16533 163.305 10.4413 163.32 11.468C163.349 12.4947 163.371 13.3893 163.386 14.152C163.386 14.4307 163.415 14.6947 163.474 14.944C163.532 15.1787 163.613 15.296 163.716 15.296H164.596C164.64 15.296 164.669 15.3473 164.684 15.45C164.713 15.5527 164.728 15.648 164.728 15.736C164.728 15.7947 164.72 15.8533 164.706 15.912C164.691 15.956 164.654 15.978 164.596 15.978H162.77C162.418 15.978 162.051 15.9853 161.67 16C161.288 16.0147 160.988 16.022 160.768 16.022C160.738 16.022 160.709 15.9927 160.68 15.934C160.665 15.8753 160.658 15.8167 160.658 15.758C160.658 15.6847 160.665 15.604 160.68 15.516C160.709 15.428 160.738 15.384 160.768 15.384H161.296C161.545 15.384 161.721 15.3547 161.824 15.296C161.926 15.2373 161.985 15.12 162 14.944C162.044 14.416 162.088 13.8 162.132 13.096C162.176 12.392 162.212 11.6587 162.242 10.896C162.271 10.1333 162.293 9.38533 162.308 8.652C162.322 7.904 162.33 7.222 162.33 6.606L162.22 6.474C162.044 6.26867 161.868 6.15133 161.692 6.122C161.53 6.078 161.244 6.056 160.834 6.056C160.746 6.056 160.702 5.93867 160.702 5.704C160.702 5.484 160.746 5.374 160.834 5.374C161.024 5.374 161.318 5.38133 161.714 5.396C162.124 5.396 162.542 5.40333 162.968 5.418C163.393 5.418 163.716 5.418 163.936 5.418C163.936 5.418 164.068 5.58667 164.332 5.924C164.596 6.24667 164.933 6.67933 165.344 7.222C165.769 7.75 166.231 8.32933 166.73 8.96C167.228 9.59067 167.712 10.214 168.182 10.83C168.651 11.4313 169.069 11.9667 169.436 12.436C169.802 12.9053 170.066 13.2427 170.228 13.448H170.272C170.257 11.9667 170.242 10.6687 170.228 9.554C170.213 8.42467 170.176 7.47867 170.118 6.716C170.074 6.276 169.956 6.056 169.766 6.056H168.996C168.937 6.056 168.893 6.01933 168.864 5.946C168.849 5.858 168.842 5.77 168.842 5.682C168.842 5.60867 168.856 5.54267 168.886 5.484C168.915 5.41067 168.952 5.374 168.996 5.374C169.216 5.374 169.509 5.38133 169.876 5.396C170.242 5.41067 170.558 5.418 170.822 5.418C171.13 5.418 171.474 5.41067 171.856 5.396C172.237 5.38133 172.567 5.374 172.846 5.374C172.875 5.374 172.904 5.41067 172.934 5.484C172.963 5.54267 172.978 5.60867 172.978 5.682C172.978 5.902 172.934 6.012 172.846 6.012H172.076C171.856 6.012 171.716 6.07067 171.658 6.188C171.599 6.30533 171.555 6.48867 171.526 6.738C171.482 7.14867 171.438 7.83067 171.394 8.784C171.364 9.72267 171.335 10.8227 171.306 12.084C171.291 13.3453 171.284 14.6727 171.284 16.066C171.284 16.2127 171.152 16.286 170.888 16.286C170.668 16.286 170.506 16.2347 170.404 16.132ZM184.834 12.744C184.834 13.5653 184.842 14.218 184.856 14.702C184.886 15.1713 184.915 15.5307 184.944 15.78C184.988 16.0147 185.018 16.1833 185.032 16.286C185.062 16.4033 185.076 16.5133 185.076 16.616C185.076 16.748 185.003 16.814 184.856 16.814C184.739 16.814 184.636 16.7113 184.548 16.506C184.475 16.3007 184.402 16.1027 184.328 15.912C184.255 15.7067 184.152 15.604 184.02 15.604C183.962 15.604 183.786 15.6627 183.492 15.78C183.199 15.8973 182.825 16.0073 182.37 16.11C181.93 16.2273 181.461 16.286 180.962 16.286C179.774 16.286 178.689 16.088 177.706 15.692C176.738 15.296 175.968 14.7167 175.396 13.954C174.824 13.1767 174.538 12.2233 174.538 11.094C174.538 10.126 174.722 9.27533 175.088 8.542C175.455 7.794 175.946 7.17067 176.562 6.672C177.193 6.15867 177.897 5.77733 178.674 5.528C179.466 5.264 180.288 5.132 181.138 5.132C181.696 5.132 182.158 5.18333 182.524 5.286C182.891 5.38867 183.294 5.53533 183.734 5.726V5.374C183.734 5.25667 183.83 5.198 184.02 5.198C184.211 5.198 184.306 5.25667 184.306 5.374C184.306 5.77 184.314 6.18067 184.328 6.606C184.358 7.01667 184.402 7.41267 184.46 7.794C184.49 7.91133 184.38 7.97 184.13 7.97C183.969 7.97 183.874 7.91867 183.844 7.816L183.734 7.112C183.28 6.68667 182.81 6.386 182.326 6.21C181.842 6.034 181.329 5.946 180.786 5.946C180.097 5.946 179.444 6.12933 178.828 6.496C178.212 6.86267 177.714 7.398 177.332 8.102C176.951 8.806 176.76 9.67133 176.76 10.698C176.76 11.6513 176.944 12.4873 177.31 13.206C177.677 13.9247 178.176 14.4893 178.806 14.9C179.437 15.296 180.148 15.494 180.94 15.494C181.38 15.494 181.747 15.4427 182.04 15.34C182.348 15.2373 182.576 15.142 182.722 15.054C182.884 14.9513 182.964 14.9 182.964 14.9V13.426C182.964 12.81 182.928 12.4213 182.854 12.26C182.781 12.0987 182.708 12.018 182.634 12.018H180.94C180.838 12.018 180.786 11.908 180.786 11.688C180.786 11.6293 180.794 11.5633 180.808 11.49C180.838 11.4167 180.882 11.38 180.94 11.38C181.16 11.38 181.446 11.38 181.798 11.38C182.165 11.38 182.524 11.3873 182.876 11.402C183.228 11.402 183.514 11.402 183.734 11.402C184.424 11.402 184.908 11.3947 185.186 11.38C185.48 11.3653 185.751 11.358 186 11.358C186.044 11.358 186.081 11.3947 186.11 11.468C186.14 11.5413 186.154 11.6147 186.154 11.688C186.154 11.7467 186.14 11.82 186.11 11.908C186.096 11.9813 186.059 12.018 186 12.018H185.516C185.238 12.018 185.054 12.0693 184.966 12.172C184.878 12.2747 184.834 12.4653 184.834 12.744Z" fill="white"/>
</svg>
