<svg width="349" height="22" viewBox="0 0 349 22" fill="none" xmlns="http://www.w3.org/2000/svg">
<path d="M11.4896 16.612C11.4896 17.3213 11.5176 17.8533 11.5736 18.208C11.6483 18.5627 11.7323 18.796 11.8256 18.908C11.9189 19.02 12.0029 19.076 12.0776 19.076H13.7016C13.8509 19.076 13.9256 19.2533 13.9256 19.608C13.9256 19.6827 13.9069 19.7667 13.8696 19.86C13.8509 19.9533 13.7949 20 13.7016 20C13.1229 20 12.5256 20 11.9096 20C11.3123 19.9813 10.7336 19.972 10.1736 19.972C9.38961 19.972 8.76428 19.9813 8.29761 20C7.83095 20 7.44828 20.0093 7.14961 20.028C6.85095 20.0467 6.55228 20.056 6.25361 20.056C6.17894 20.056 6.12294 20.0093 6.08561 19.916C6.04828 19.8227 6.02961 19.72 6.02961 19.608C6.02961 19.4773 6.04828 19.3653 6.08561 19.272C6.12294 19.16 6.17894 19.104 6.25361 19.104H7.45761C7.94295 19.104 8.25095 19.0107 8.38161 18.824C8.53094 18.6373 8.60561 18.3013 8.60561 17.816V4.85201C8.60561 3.20934 8.41894 2.38801 8.04561 2.38801H7.45761C6.59894 2.38801 5.79628 2.42534 5.04961 2.50001C4.30294 2.55601 3.61228 2.65868 2.97761 2.80801C2.62294 2.92001 2.36161 3.20001 2.19361 3.64801C2.02561 4.09601 1.90428 4.50668 1.82961 4.88001C1.81094 4.97334 1.75494 5.03868 1.66161 5.07601C1.58694 5.11334 1.50294 5.13201 1.40961 5.13201C1.29761 5.13201 1.17628 5.11334 1.04561 5.07601C0.933611 5.02001 0.886945 4.95468 0.905611 4.88001C0.998945 4.30134 1.05494 3.62934 1.07361 2.86401C1.11094 2.08001 1.12961 1.33334 1.12961 0.624009C1.12961 0.549343 1.19494 0.493343 1.32561 0.45601C1.45628 0.400009 1.57761 0.372009 1.68961 0.372009C1.91361 0.372009 2.02561 0.456009 2.02561 0.624009V1.15601C2.51094 1.17468 3.01494 1.19334 3.53761 1.21201C4.07894 1.21201 4.74161 1.21201 5.52561 1.21201H13.8976C14.9056 1.21201 15.7363 1.21201 16.3896 1.21201C17.0429 1.19334 17.6029 1.17468 18.0696 1.15601V0.624009C18.0696 0.456009 18.1816 0.372009 18.4056 0.372009C18.5176 0.372009 18.6389 0.400009 18.7696 0.45601C18.9003 0.493343 18.9656 0.549343 18.9656 0.624009C18.9656 1.33334 18.9749 2.08001 18.9936 2.86401C19.0309 3.62934 19.0963 4.30134 19.1896 4.88001C19.2083 4.95468 19.1523 5.02001 19.0216 5.07601C18.9096 5.11334 18.7976 5.13201 18.6856 5.13201C18.5923 5.13201 18.4989 5.11334 18.4056 5.07601C18.3309 5.03868 18.2843 4.97334 18.2656 4.88001C18.1909 4.50668 18.0696 4.09601 17.9016 3.64801C17.7523 3.20001 17.4909 2.92001 17.1176 2.80801C16.4829 2.64001 15.7736 2.53734 14.9896 2.50001C14.2056 2.44401 13.3563 2.40668 12.4416 2.38801C12.0496 2.40668 11.7883 2.51868 11.6576 2.72401C11.5456 2.91068 11.4896 3.22801 11.4896 3.67601V16.612Z" fill="black"/>
<path d="M33.836 17.004C33.836 17.788 33.892 18.3387 34.004 18.656C34.116 18.9733 34.2467 19.132 34.396 19.132H35.796C35.852 19.132 35.8987 19.1787 35.936 19.272C35.992 19.3653 36.02 19.4773 36.02 19.608C36.02 19.7013 36.0014 19.7947 35.964 19.888C35.9454 19.9627 35.908 20 35.852 20C35.516 20 35.0774 20 34.536 20C33.9947 19.9813 33.3507 19.972 32.604 19.972C31.708 19.972 31.0734 19.9813 30.7 20C30.3267 20.0373 30.028 20.056 29.804 20.056C29.7294 20.056 29.6734 20 29.636 19.888C29.6174 19.776 29.608 19.6827 29.608 19.608C29.608 19.5147 29.6174 19.4307 29.636 19.356C29.6734 19.2627 29.72 19.216 29.776 19.216H31.036C31.2414 19.216 31.3627 19.1693 31.4 19.076C31.4374 18.9827 31.456 18.7587 31.456 18.404V13.84H24.68V17.004C24.68 17.788 24.736 18.3387 24.848 18.656C24.96 18.9733 25.0907 19.132 25.24 19.132H26.64C26.696 19.132 26.7427 19.1787 26.78 19.272C26.836 19.3653 26.864 19.4773 26.864 19.608C26.864 19.7013 26.8454 19.7947 26.808 19.888C26.7894 19.9627 26.752 20 26.696 20C26.36 20 25.9214 20 25.38 20C24.8387 19.9813 24.1947 19.972 23.448 19.972C22.552 19.972 21.9174 19.9813 21.544 20C21.1707 20.0373 20.872 20.056 20.648 20.056C20.5734 20.056 20.5173 20 20.48 19.888C20.4613 19.776 20.452 19.6827 20.452 19.608C20.452 19.5147 20.4613 19.4307 20.48 19.356C20.5173 19.2627 20.564 19.216 20.62 19.216H21.88C22.0854 19.216 22.2067 19.1693 22.244 19.076C22.2814 18.9827 22.3 18.7587 22.3 18.404V9.58401C22.3 8.80001 22.244 8.23068 22.132 7.87601C22.0387 7.52134 21.908 7.34401 21.74 7.34401H20.732C20.508 7.34401 20.396 7.20401 20.396 6.92401C20.396 6.62534 20.4987 6.47601 20.704 6.47601C21.0587 6.47601 21.4787 6.49468 21.964 6.53201C22.4494 6.55068 22.944 6.55068 23.448 6.53201C23.784 6.53201 24.176 6.53201 24.624 6.53201C25.0907 6.51334 25.492 6.50401 25.828 6.50401C26.1827 6.48534 26.36 6.47601 26.36 6.47601C26.416 6.47601 26.4627 6.52268 26.5 6.61601C26.5373 6.70934 26.556 6.80268 26.556 6.89601C26.556 7.15734 26.4814 7.28801 26.332 7.28801H25.044C24.9134 7.28801 24.82 7.31601 24.764 7.37201C24.708 7.42801 24.68 7.54934 24.68 7.73601V12.776H31.456V9.58401C31.456 8.80001 31.4 8.23068 31.288 7.87601C31.1947 7.52134 31.064 7.34401 30.896 7.34401H29.888C29.664 7.34401 29.552 7.20401 29.552 6.92401C29.552 6.62534 29.6547 6.47601 29.86 6.47601C30.2147 6.47601 30.6347 6.49468 31.12 6.53201C31.6054 6.55068 32.1 6.55068 32.604 6.53201C32.94 6.53201 33.332 6.53201 33.78 6.53201C34.2467 6.51334 34.648 6.50401 34.984 6.50401C35.3387 6.48534 35.516 6.47601 35.516 6.47601C35.572 6.47601 35.6187 6.52268 35.656 6.61601C35.6934 6.70934 35.712 6.80268 35.712 6.89601C35.712 7.15734 35.6374 7.28801 35.488 7.28801H34.2C34.0694 7.28801 33.976 7.31601 33.92 7.37201C33.864 7.42801 33.836 7.54934 33.836 7.73601V17.004Z" fill="black"/>
<path d="M42.4261 12.888C43.0234 12.8693 43.5928 12.8413 44.1341 12.804C44.6941 12.7667 45.1608 12.7293 45.5341 12.692C45.9074 12.636 46.1128 12.5987 46.1501 12.58L46.3461 11.404C46.3834 11.3107 46.5141 11.264 46.7381 11.264C46.7941 11.264 46.8688 11.2827 46.9621 11.32C47.0554 11.3387 47.1021 11.3853 47.1021 11.46C47.0648 11.7587 47.0368 12.048 47.0181 12.328C46.9994 12.5893 46.9901 12.8787 46.9901 13.196C46.9901 13.476 46.9994 13.784 47.0181 14.12C47.0368 14.4373 47.0648 14.7547 47.1021 15.072C47.1021 15.128 47.0461 15.1747 46.9341 15.212C46.8408 15.2307 46.7474 15.24 46.6541 15.24C46.5794 15.24 46.5048 15.2307 46.4301 15.212C46.3741 15.1933 46.3461 15.1653 46.3461 15.128L46.1221 13.924C46.0848 13.8867 45.8794 13.8493 45.5061 13.812C45.1514 13.7747 44.7034 13.7373 44.1621 13.7C43.6208 13.6627 43.0421 13.6347 42.4261 13.616V17.004C42.4261 17.788 42.4821 18.3387 42.5941 18.656C42.7061 18.9547 42.8368 19.104 42.9861 19.104H43.8821C44.7594 19.0853 45.5901 19.0013 46.3741 18.852C47.1768 18.7027 47.7648 18.4973 48.1381 18.236L48.2781 17.144C48.2968 17.088 48.3528 17.0507 48.4461 17.032C48.5581 16.9947 48.6514 16.976 48.7261 16.976C48.8194 16.976 48.9034 16.9853 48.9781 17.004C49.0528 17.0227 49.0808 17.0693 49.0621 17.144C48.9874 17.6293 48.9408 18.18 48.9221 18.796C48.9034 19.3933 48.8941 19.944 48.8941 20.448C48.8941 20.504 48.8474 20.5413 48.7541 20.56C48.6794 20.5787 48.6141 20.588 48.5581 20.588C48.4834 20.588 48.3901 20.5787 48.2781 20.56C48.1848 20.5413 48.1381 20.504 48.1381 20.448V20H43.1541C42.0154 20 41.1381 20 40.5221 20C39.9061 20.0187 39.4488 20.028 39.1501 20.028C38.8514 20.0467 38.5994 20.056 38.3941 20.056C38.3194 20.056 38.2634 20 38.2261 19.888C38.2074 19.776 38.1981 19.6827 38.1981 19.608C38.1981 19.5147 38.2074 19.4307 38.2261 19.356C38.2634 19.2627 38.3101 19.216 38.3661 19.216H39.6261C39.8314 19.216 39.9528 19.1693 39.9901 19.076C40.0274 18.9827 40.0461 18.7587 40.0461 18.404V9.58401C40.0461 8.80001 39.9901 8.23068 39.8781 7.87601C39.7848 7.52134 39.6541 7.34401 39.4861 7.34401H38.4781C38.2541 7.34401 38.1421 7.20401 38.1421 6.92401C38.1421 6.62534 38.2448 6.47601 38.4501 6.47601C38.8048 6.47601 39.2341 6.48534 39.7381 6.50401C40.2608 6.52268 40.7834 6.53201 41.3061 6.53201H47.1021V6.08401C47.1021 6.02801 47.1394 5.99068 47.2141 5.97201C47.2888 5.93468 47.3634 5.91601 47.4381 5.91601C47.5128 5.91601 47.5968 5.93468 47.6901 5.97201C47.8021 5.99068 47.8581 6.02801 47.8581 6.08401C47.8581 6.58801 47.8674 7.13868 47.8861 7.73601C47.9234 8.33334 47.9794 8.83734 48.0541 9.24801C48.0728 9.30401 48.0448 9.35068 47.9701 9.38801C47.8954 9.40668 47.8208 9.41601 47.7461 9.41601C47.6714 9.41601 47.5688 9.40668 47.4381 9.38801C47.3261 9.35068 47.2701 9.30401 47.2701 9.24801C47.1954 8.98668 47.1021 8.70668 46.9901 8.40801C46.8968 8.10934 46.7381 7.90401 46.5141 7.79201C46.1594 7.66134 45.7208 7.55868 45.1981 7.48401C44.6754 7.40934 43.9754 7.37201 43.0981 7.37201C42.8368 7.39068 42.6594 7.47468 42.5661 7.62401C42.4728 7.75468 42.4261 7.97868 42.4261 8.29601V12.888Z" fill="black"/>
<path d="M77.9739 20.336C77.8992 20.504 77.7032 20.588 77.3859 20.588C77.0872 20.588 76.8912 20.504 76.7979 20.336C76.4992 19.6453 75.9579 18.292 75.1739 16.276C74.3899 14.2413 73.3912 11.544 72.1779 8.18401C71.5805 9.73334 70.9832 11.2827 70.3859 12.832C69.8072 14.3813 69.2659 15.8093 68.7619 17.116C68.2579 18.4227 67.8192 19.496 67.4459 20.336C67.4085 20.4107 67.3245 20.4667 67.1939 20.504C67.0819 20.56 66.9512 20.588 66.8019 20.588C66.5032 20.588 66.3072 20.504 66.2139 20.336C65.8592 19.4773 65.1032 17.592 63.9459 14.68C62.7885 11.7493 61.3232 7.80134 59.5499 2.83601C59.4565 2.53734 59.3259 2.33201 59.1579 2.22001C59.0085 2.10801 58.8685 2.05201 58.7379 2.05201H57.7299C57.6179 2.05201 57.5619 1.92134 57.5619 1.66001C57.5619 1.54801 57.5712 1.43601 57.5899 1.32401C57.6272 1.21201 57.6739 1.15601 57.7299 1.15601C57.9912 1.15601 58.3179 1.16534 58.7099 1.18401C59.1205 1.18401 59.5219 1.19334 59.9139 1.21201C60.3059 1.21201 60.6045 1.21201 60.8099 1.21201C60.9779 1.21201 61.2485 1.21201 61.6219 1.21201C61.9952 1.19334 62.3965 1.18401 62.8259 1.18401C63.2739 1.18401 63.6939 1.18401 64.0859 1.18401C64.4965 1.16534 64.8139 1.15601 65.0379 1.15601C65.1312 1.15601 65.1965 1.22134 65.2339 1.35201C65.2899 1.46401 65.3179 1.57601 65.3179 1.68801C65.3179 1.91201 65.2245 2.02401 65.0379 2.02401H63.4139C63.0779 2.02401 62.8819 2.12668 62.8259 2.33201C62.7699 2.51868 62.7885 2.79868 62.8819 3.17201C63.0312 3.73201 63.2365 4.45068 63.4979 5.32801C63.7779 6.20534 64.0859 7.16668 64.4219 8.21201C64.7765 9.25734 65.1312 10.3213 65.4859 11.404C65.8592 12.4867 66.2139 13.532 66.5499 14.54C66.8859 15.548 67.1752 16.4347 67.4179 17.2H67.5299C68.4072 14.792 69.1725 12.6267 69.8259 10.704C70.4792 8.78134 70.9925 7.21334 71.3659 6.00001C71.1792 5.49601 70.9925 4.98268 70.8059 4.46001C70.6379 3.93734 70.4512 3.39601 70.2459 2.83601C70.1525 2.53734 70.0219 2.33201 69.8539 2.22001C69.7045 2.10801 69.5645 2.05201 69.4339 2.05201H68.4259C68.3139 2.05201 68.2579 1.92134 68.2579 1.66001C68.2579 1.54801 68.2672 1.43601 68.2859 1.32401C68.3232 1.21201 68.3699 1.15601 68.4259 1.15601C68.6872 1.15601 69.0139 1.16534 69.4059 1.18401C69.8165 1.18401 70.2179 1.19334 70.6099 1.21201C71.0019 1.21201 71.3005 1.21201 71.5059 1.21201C71.6739 1.21201 71.9445 1.21201 72.3179 1.21201C72.6912 1.19334 73.0925 1.18401 73.5219 1.18401C73.9699 1.18401 74.3899 1.18401 74.7819 1.18401C75.1925 1.16534 75.5099 1.15601 75.7339 1.15601C75.8272 1.15601 75.8925 1.22134 75.9299 1.35201C75.9859 1.46401 76.0139 1.57601 76.0139 1.68801C76.0139 1.91201 75.9205 2.02401 75.7339 2.02401H74.1099C73.7739 2.02401 73.5779 2.12668 73.5219 2.33201C73.4659 2.51868 73.4845 2.79868 73.5779 3.17201C73.7272 3.73201 73.9325 4.45068 74.1939 5.32801C74.4552 6.20534 74.7539 7.16668 75.0899 8.21201C75.4259 9.25734 75.7619 10.3213 76.0979 11.404C76.4525 12.4867 76.7979 13.532 77.1339 14.54C77.4699 15.548 77.7592 16.4347 78.0019 17.2H78.1139C78.9912 14.7733 79.7472 12.5987 80.3819 10.676C81.0352 8.75334 81.5485 7.17601 81.9219 5.94401C82.3139 4.71201 82.5472 3.91868 82.6219 3.56401C82.6592 3.35868 82.6872 3.18134 82.7059 3.03201C82.7432 2.88268 82.7619 2.75201 82.7619 2.64001C82.7619 2.24801 82.6779 2.05201 82.5099 2.05201H80.6619C80.5125 2.05201 80.4379 1.93068 80.4379 1.68801C80.4379 1.57601 80.4565 1.46401 80.4939 1.35201C80.5312 1.22134 80.5872 1.15601 80.6619 1.15601C81.1472 1.15601 81.7352 1.16534 82.4259 1.18401C83.1165 1.20268 83.7232 1.21201 84.2459 1.21201C84.4885 1.21201 84.8152 1.21201 85.2259 1.21201C85.6552 1.19334 86.0752 1.18401 86.4859 1.18401C86.8965 1.16534 87.1952 1.15601 87.3819 1.15601C87.4565 1.15601 87.5125 1.21201 87.5499 1.32401C87.5872 1.43601 87.6059 1.54801 87.6059 1.66001C87.6059 1.90268 87.5312 2.02401 87.3819 2.02401H86.0379C85.7765 2.02401 85.5712 2.11734 85.4219 2.30401C85.2725 2.47201 85.1419 2.68668 85.0299 2.94801C84.4325 4.36668 83.7979 5.90668 83.1259 7.56801C82.4725 9.21068 81.8285 10.844 81.1939 12.468C80.5592 14.092 79.9619 15.5947 79.4019 16.976C78.8419 18.3387 78.3659 19.4587 77.9739 20.336Z" fill="black"/>
<path d="M92.0277 17.004C92.0277 17.788 92.0837 18.3387 92.1957 18.656C92.3077 18.9733 92.4383 19.132 92.5877 19.132H93.9877C94.0437 19.132 94.0903 19.1787 94.1277 19.272C94.1837 19.3653 94.2117 19.4773 94.2117 19.608C94.2117 19.7013 94.193 19.7947 94.1557 19.888C94.137 19.9627 94.0997 20 94.0437 20C93.7077 20 93.269 20 92.7277 20C92.1863 19.9813 91.5423 19.972 90.7957 19.972C89.8997 19.972 89.265 19.9813 88.8917 20C88.5183 20.0373 88.2197 20.056 87.9957 20.056C87.921 20.056 87.865 20 87.8277 19.888C87.809 19.776 87.7997 19.6827 87.7997 19.608C87.7997 19.5147 87.809 19.4307 87.8277 19.356C87.865 19.2627 87.9117 19.216 87.9677 19.216H89.2277C89.433 19.216 89.5543 19.1693 89.5917 19.076C89.629 18.9827 89.6477 18.7587 89.6477 18.404V9.58401C89.6477 8.80001 89.5917 8.23068 89.4797 7.87601C89.3863 7.52134 89.2557 7.34401 89.0877 7.34401H88.0797C87.8557 7.34401 87.7437 7.20401 87.7437 6.92401C87.7437 6.62534 87.8463 6.47601 88.0517 6.47601C88.4063 6.47601 88.8263 6.49468 89.3117 6.53201C89.797 6.55068 90.2917 6.55068 90.7957 6.53201C91.1317 6.53201 91.5237 6.53201 91.9717 6.53201C92.4383 6.51334 92.8397 6.50401 93.1757 6.50401C93.5303 6.48534 93.7077 6.47601 93.7077 6.47601C93.7637 6.47601 93.8103 6.52268 93.8477 6.61601C93.885 6.70934 93.9037 6.80268 93.9037 6.89601C93.9037 7.15734 93.829 7.28801 93.6797 7.28801H92.3917C92.261 7.28801 92.1677 7.31601 92.1117 7.37201C92.0557 7.42801 92.0277 7.54934 92.0277 7.73601V17.004Z" fill="black"/>
<path d="M103.862 6.61601C103.843 6.52268 103.824 6.44801 103.806 6.39201C103.806 6.31734 103.806 6.26134 103.806 6.22401C103.806 6.05601 103.899 5.97201 104.086 5.97201C104.235 5.97201 104.338 6.00001 104.394 6.05601C104.468 6.09334 104.524 6.21468 104.562 6.42001C104.655 6.71868 104.711 6.98934 104.73 7.23201C104.767 7.45601 104.804 7.68001 104.842 7.90401C104.898 8.14668 104.944 8.37068 104.982 8.57601C105.038 8.76268 105.094 9.07068 105.15 9.50001C105.15 9.64934 105.028 9.72401 104.786 9.72401C104.711 9.72401 104.636 9.71468 104.562 9.69601C104.487 9.65868 104.431 9.59334 104.394 9.50001C104.151 8.80934 103.768 8.24001 103.246 7.79201C102.723 7.34401 102.135 7.11068 101.482 7.09201C100.959 7.09201 100.455 7.26001 99.9696 7.59601C99.5029 7.93201 99.2696 8.39868 99.2696 8.99601C99.2696 9.59334 99.4749 10.116 99.8856 10.564C100.296 11.012 100.81 11.432 101.426 11.824C102.042 12.216 102.658 12.636 103.274 13.084C103.89 13.532 104.403 14.064 104.814 14.68C105.224 15.296 105.43 16.052 105.43 16.948C105.43 17.7133 105.187 18.348 104.702 18.852C104.235 19.356 103.638 19.7387 102.91 20C102.2 20.2427 101.472 20.364 100.726 20.364C100.203 20.364 99.6709 20.2893 99.1296 20.14C98.6069 20.0093 98.1776 19.8693 97.8416 19.72C97.8416 19.9253 97.8229 20.056 97.7856 20.112C97.7669 20.168 97.6736 20.2147 97.5056 20.252H97.3936C97.2443 20.252 97.1603 20.1773 97.1416 20.028C97.0856 19.3747 97.0109 18.7867 96.9176 18.264C96.8429 17.7227 96.7589 17.06 96.6656 16.276C96.6656 16.1827 96.7123 16.1173 96.8056 16.08C96.8989 16.024 97.0016 15.996 97.1136 15.996C97.2816 15.996 97.3749 16.0427 97.3936 16.136C97.5616 16.696 97.8136 17.2373 98.1496 17.76C98.4856 18.264 98.8963 18.684 99.3816 19.02C99.867 19.3373 100.399 19.496 100.978 19.496C101.519 19.496 102.032 19.3373 102.518 19.02C103.022 18.684 103.274 18.18 103.274 17.508C103.274 16.8547 103.068 16.2947 102.658 15.828C102.247 15.3427 101.734 14.8947 101.118 14.484C100.52 14.0733 99.9136 13.644 99.2976 13.196C98.7003 12.748 98.1963 12.244 97.7856 11.684C97.3749 11.124 97.1696 10.4427 97.1696 9.64001C97.1696 8.89334 97.3843 8.26801 97.8136 7.76401C98.243 7.26001 98.7936 6.87734 99.4656 6.61601C100.156 6.35468 100.884 6.22401 101.65 6.22401C102.116 6.22401 102.536 6.27068 102.91 6.36401C103.302 6.43868 103.619 6.52268 103.862 6.61601Z" fill="black"/>
<path d="M113.449 6.53201C115.129 6.53201 116.575 6.84934 117.789 7.48401C119.002 8.10001 119.935 8.92134 120.589 9.94801C121.261 10.9747 121.597 12.0947 121.597 13.308C121.597 14.6893 121.251 15.884 120.561 16.892C119.889 17.9 118.965 18.6747 117.789 19.216C116.613 19.7387 115.297 20 113.841 20H110.789C110.266 20 109.846 20 109.529 20C109.23 20.0187 108.95 20.028 108.689 20.028C108.446 20.0467 108.147 20.056 107.793 20.056C107.737 20.056 107.69 20.0093 107.653 19.916C107.615 19.804 107.597 19.7107 107.597 19.636C107.597 19.5427 107.606 19.4493 107.625 19.356C107.662 19.2627 107.699 19.216 107.737 19.216H109.109C109.333 19.216 109.445 19.0573 109.445 18.74V9.55601C109.445 8.08134 109.239 7.34401 108.829 7.34401H107.849C107.643 7.34401 107.541 7.20401 107.541 6.92401C107.541 6.81201 107.559 6.70934 107.597 6.61601C107.653 6.52268 107.718 6.47601 107.793 6.47601C107.793 6.47601 108.091 6.48534 108.689 6.50401C109.305 6.52268 109.986 6.53201 110.733 6.53201H113.449ZM113.421 19.104C115.194 19.104 116.529 18.6093 117.425 17.62C118.321 16.612 118.769 15.3427 118.769 13.812C118.769 12.6173 118.554 11.544 118.125 10.592C117.714 9.64001 117.051 8.88401 116.137 8.32401C115.241 7.74534 114.055 7.42801 112.581 7.37201C112.077 7.33468 111.825 7.60534 111.825 8.18401V16.92C111.825 17.6853 111.871 18.2453 111.965 18.6C112.077 18.936 112.226 19.104 112.413 19.104H113.421Z" fill="black"/>
<path d="M131.287 6.16801C132.276 6.16801 133.219 6.35468 134.115 6.72801C135.029 7.10134 135.832 7.61468 136.523 8.26801C137.232 8.92134 137.783 9.67734 138.175 10.536C138.585 11.376 138.791 12.272 138.791 13.224C138.791 14.1947 138.585 15.1093 138.175 15.968C137.783 16.8267 137.232 17.592 136.523 18.264C135.832 18.9173 135.029 19.4307 134.115 19.804C133.219 20.1773 132.276 20.364 131.287 20.364C130.297 20.364 129.345 20.1773 128.431 19.804C127.535 19.4307 126.732 18.9173 126.023 18.264C125.332 17.592 124.781 16.8267 124.371 15.968C123.979 15.1093 123.783 14.1947 123.783 13.224C123.783 12.272 123.979 11.376 124.371 10.536C124.781 9.67734 125.332 8.92134 126.023 8.26801C126.732 7.61468 127.535 7.10134 128.431 6.72801C129.345 6.35468 130.297 6.16801 131.287 6.16801ZM131.287 7.17601C130.335 7.17601 129.504 7.45601 128.795 8.01601C128.104 8.55734 127.563 9.28534 127.171 10.2C126.779 11.1147 126.583 12.1227 126.583 13.224C126.583 14.3253 126.779 15.3427 127.171 16.276C127.563 17.2093 128.104 17.956 128.795 18.516C129.504 19.076 130.335 19.356 131.287 19.356C132.239 19.356 133.06 19.076 133.751 18.516C134.46 17.956 135.011 17.2093 135.403 16.276C135.795 15.3427 135.991 14.3253 135.991 13.224C135.991 12.1227 135.795 11.1147 135.403 10.2C135.011 9.28534 134.46 8.55734 133.751 8.01601C133.06 7.45601 132.239 7.17601 131.287 7.17601Z" fill="black"/>
<path d="M157.223 7.28801C156.869 7.28801 156.673 7.46534 156.635 7.82001C156.598 8.15601 156.617 8.68801 156.691 9.41601C156.785 10.368 156.878 11.3947 156.971 12.496C157.083 13.5787 157.186 14.6053 157.279 15.576C157.391 16.5467 157.485 17.34 157.559 17.956C157.597 18.236 157.653 18.5067 157.727 18.768C157.802 19.0107 157.905 19.132 158.035 19.132H159.267C159.342 19.132 159.398 19.188 159.435 19.3C159.491 19.3933 159.519 19.496 159.519 19.608C159.519 19.8693 159.445 20 159.295 20C159.09 20 158.801 20 158.427 20C158.054 19.9813 157.69 19.972 157.335 19.972C156.999 19.972 156.738 19.972 156.551 19.972C156.327 19.972 156.01 19.9813 155.599 20C155.207 20 154.825 20.0093 154.451 20.028C154.097 20.0467 153.854 20.056 153.723 20.056C153.649 20.056 153.593 20.0093 153.555 19.916C153.537 19.804 153.527 19.7107 153.527 19.636C153.527 19.356 153.583 19.216 153.695 19.216H154.563C155.067 19.216 155.301 19.0013 155.263 18.572C155.245 18.348 155.217 17.9653 155.179 17.424C155.142 16.8827 155.095 16.2573 155.039 15.548C154.983 14.8387 154.927 14.1107 154.871 13.364C154.815 12.6173 154.769 11.9267 154.731 11.292C154.694 10.6387 154.666 10.1067 154.647 9.69601H154.535C154.143 10.536 153.723 11.46 153.275 12.468C152.827 13.476 152.389 14.4653 151.959 15.436C151.549 16.4067 151.185 17.2653 150.867 18.012C150.569 18.7587 150.354 19.3 150.223 19.636C150.149 19.804 149.962 19.888 149.663 19.888C149.383 19.888 149.206 19.7947 149.131 19.608C148.945 19.1227 148.683 18.488 148.347 17.704C148.03 16.9013 147.675 16.024 147.283 15.072C146.91 14.12 146.527 13.1587 146.135 12.188C145.743 11.2173 145.379 10.312 145.043 9.47201H144.959C144.679 13.336 144.539 15.9493 144.539 17.312C144.521 18.0213 144.558 18.5067 144.651 18.768C144.745 19.0107 144.875 19.132 145.043 19.132H145.911C146.005 19.132 146.07 19.188 146.107 19.3C146.163 19.3933 146.191 19.4867 146.191 19.58C146.191 19.86 146.098 20 145.911 20C145.426 20 145.015 20 144.679 20C144.343 19.9813 144.007 19.972 143.671 19.972C143.149 19.972 142.626 19.9813 142.103 20C141.581 20.0373 141.207 20.056 140.983 20.056C140.927 20.056 140.881 20.0093 140.843 19.916C140.825 19.804 140.815 19.7107 140.815 19.636C140.815 19.5427 140.825 19.4493 140.843 19.356C140.881 19.2627 140.937 19.216 141.011 19.216H141.683C142.001 19.216 142.234 19.188 142.383 19.132C142.551 19.076 142.663 18.9173 142.719 18.656C142.775 18.3387 142.841 17.844 142.915 17.172C143.009 16.5 143.102 15.744 143.195 14.904C143.289 14.064 143.373 13.2427 143.447 12.44C143.541 11.6187 143.615 10.9093 143.671 10.312C143.727 9.69601 143.755 9.29468 143.755 9.10801C143.755 8.39868 143.709 7.93201 143.615 7.70801C143.541 7.46534 143.391 7.34401 143.167 7.34401H142.383C142.271 7.34401 142.215 7.19468 142.215 6.89601C142.215 6.61601 142.271 6.47601 142.383 6.47601C142.906 6.47601 143.354 6.49468 143.727 6.53201C144.119 6.55068 144.567 6.56001 145.071 6.56001H146.387C146.649 7.28801 146.938 8.10934 147.255 9.02401C147.591 9.92001 147.927 10.8347 148.263 11.768C148.599 12.6827 148.926 13.5693 149.243 14.428C149.561 15.2867 149.841 16.0427 150.083 16.696H150.195C150.587 15.8373 150.989 14.9133 151.399 13.924C151.829 12.916 152.23 11.9267 152.603 10.956C152.977 9.98534 153.303 9.11734 153.583 8.35201C153.882 7.56801 154.106 6.97068 154.255 6.56001C154.479 6.56001 154.815 6.55068 155.263 6.53201C155.73 6.51334 156.206 6.50401 156.691 6.50401C157.195 6.48534 157.606 6.47601 157.923 6.47601C157.998 6.47601 158.054 6.52268 158.091 6.61601C158.129 6.69068 158.147 6.77468 158.147 6.86801C158.147 6.96134 158.129 7.05468 158.091 7.14801C158.054 7.24134 157.998 7.28801 157.923 7.28801H157.223Z" fill="black"/>
<path d="M176.24 6.16801C177.229 6.16801 178.172 6.35468 179.068 6.72801C179.983 7.10134 180.785 7.61468 181.476 8.26801C182.185 8.92134 182.736 9.67734 183.128 10.536C183.539 11.376 183.744 12.272 183.744 13.224C183.744 14.1947 183.539 15.1093 183.128 15.968C182.736 16.8267 182.185 17.592 181.476 18.264C180.785 18.9173 179.983 19.4307 179.068 19.804C178.172 20.1773 177.229 20.364 176.24 20.364C175.251 20.364 174.299 20.1773 173.384 19.804C172.488 19.4307 171.685 18.9173 170.976 18.264C170.285 17.592 169.735 16.8267 169.324 15.968C168.932 15.1093 168.736 14.1947 168.736 13.224C168.736 12.272 168.932 11.376 169.324 10.536C169.735 9.67734 170.285 8.92134 170.976 8.26801C171.685 7.61468 172.488 7.10134 173.384 6.72801C174.299 6.35468 175.251 6.16801 176.24 6.16801ZM176.24 7.17601C175.288 7.17601 174.457 7.45601 173.748 8.01601C173.057 8.55734 172.516 9.28534 172.124 10.2C171.732 11.1147 171.536 12.1227 171.536 13.224C171.536 14.3253 171.732 15.3427 172.124 16.276C172.516 17.2093 173.057 17.956 173.748 18.516C174.457 19.076 175.288 19.356 176.24 19.356C177.192 19.356 178.013 19.076 178.704 18.516C179.413 17.956 179.964 17.2093 180.356 16.276C180.748 15.3427 180.944 14.3253 180.944 13.224C180.944 12.1227 180.748 11.1147 180.356 10.2C179.964 9.28534 179.413 8.55734 178.704 8.01601C178.013 7.45601 177.192 7.17601 176.24 7.17601Z" fill="black"/>
<path d="M190.164 12.888C190.762 12.8693 191.34 12.8413 191.9 12.804C192.46 12.7667 192.927 12.7293 193.3 12.692C193.692 12.636 193.907 12.5987 193.944 12.58L194.14 11.404C194.178 11.3107 194.308 11.264 194.532 11.264C194.588 11.264 194.663 11.2827 194.756 11.32C194.85 11.3387 194.896 11.3853 194.896 11.46C194.859 11.7587 194.831 12.048 194.812 12.328C194.794 12.5893 194.784 12.8787 194.784 13.196C194.784 13.476 194.794 13.784 194.812 14.12C194.831 14.4373 194.859 14.7547 194.896 15.072C194.896 15.128 194.84 15.1747 194.728 15.212C194.635 15.2307 194.542 15.24 194.448 15.24C194.374 15.24 194.299 15.2307 194.224 15.212C194.168 15.1933 194.14 15.1653 194.14 15.128L193.916 13.924C193.879 13.8867 193.674 13.8493 193.3 13.812C192.927 13.7747 192.46 13.7373 191.9 13.7C191.359 13.6627 190.78 13.6347 190.164 13.616V17.004C190.164 17.788 190.22 18.3387 190.332 18.656C190.444 18.9733 190.575 19.132 190.724 19.132H192.124C192.18 19.132 192.227 19.1787 192.264 19.272C192.32 19.3653 192.348 19.4773 192.348 19.608C192.348 19.7013 192.33 19.7947 192.292 19.888C192.274 19.9627 192.236 20 192.18 20C191.844 20 191.406 20 190.864 20C190.323 19.9813 189.679 19.972 188.932 19.972C188.036 19.972 187.402 19.9813 187.028 20C186.655 20.0373 186.356 20.056 186.132 20.056C186.058 20.056 186.002 20 185.964 19.888C185.946 19.776 185.936 19.6827 185.936 19.608C185.936 19.5147 185.946 19.4307 185.964 19.356C186.002 19.2627 186.048 19.216 186.104 19.216H187.364C187.57 19.216 187.691 19.1693 187.728 19.076C187.766 18.9827 187.784 18.7587 187.784 18.404V9.58401C187.784 8.80001 187.728 8.23068 187.616 7.87601C187.523 7.52134 187.392 7.34401 187.224 7.34401H186.216C185.992 7.34401 185.88 7.20401 185.88 6.92401C185.88 6.62534 185.983 6.47601 186.188 6.47601C186.543 6.47601 186.972 6.48534 187.476 6.50401C187.999 6.52268 188.522 6.53201 189.044 6.53201H194.896V6.08401C194.896 6.02801 194.934 5.99068 195.008 5.97201C195.083 5.93468 195.158 5.91601 195.232 5.91601C195.307 5.91601 195.391 5.93468 195.484 5.97201C195.596 5.99068 195.652 6.02801 195.652 6.08401C195.652 6.58801 195.662 7.13868 195.68 7.73601C195.718 8.33334 195.774 8.83734 195.848 9.24801C195.867 9.30401 195.839 9.35068 195.764 9.38801C195.69 9.40668 195.615 9.41601 195.54 9.41601C195.466 9.41601 195.363 9.40668 195.232 9.38801C195.12 9.35068 195.064 9.30401 195.064 9.24801C194.99 8.98668 194.896 8.70668 194.784 8.40801C194.691 8.10934 194.532 7.90401 194.308 7.79201C193.954 7.66134 193.506 7.55868 192.964 7.48401C192.423 7.40934 191.714 7.37201 190.836 7.37201C190.575 7.39068 190.398 7.47468 190.304 7.62401C190.211 7.75468 190.164 7.97868 190.164 8.29601V12.888Z" fill="black"/>
<path d="M211.938 11.544C211.938 11.32 211.798 10.9747 211.518 10.508C211.238 10.0227 210.874 9.48134 210.426 8.88401C209.978 8.26801 209.492 7.64268 208.97 7.00801C208.447 6.37334 207.952 5.77601 207.486 5.21601C207.019 4.65601 206.627 4.19868 206.31 3.84401C205.638 3.06001 205.143 2.56534 204.826 2.36001C204.508 2.15468 204.219 2.05201 203.958 2.05201H203.062C203.006 2.05201 202.959 2.00534 202.922 1.91201C202.884 1.80001 202.866 1.68801 202.866 1.57601C202.866 1.48268 202.884 1.38934 202.922 1.29601C202.94 1.20268 202.987 1.15601 203.062 1.15601C203.323 1.15601 203.659 1.16534 204.07 1.18401C204.48 1.18401 204.91 1.19334 205.358 1.21201C205.806 1.21201 206.198 1.21201 206.534 1.21201C206.814 1.21201 207.168 1.21201 207.598 1.21201C208.046 1.19334 208.484 1.18401 208.914 1.18401C209.362 1.18401 209.735 1.18401 210.034 1.18401C210.332 1.16534 210.482 1.15601 210.482 1.15601C210.556 1.15601 210.612 1.22134 210.65 1.35201C210.706 1.46401 210.734 1.57601 210.734 1.68801C210.734 1.78134 210.715 1.87468 210.678 1.96801C210.64 2.04268 210.575 2.08001 210.482 2.08001H208.522C208.522 2.13601 208.652 2.33201 208.914 2.66801C209.194 3.00401 209.548 3.43334 209.978 3.95601C210.426 4.47868 210.892 5.04801 211.378 5.66401C211.863 6.28001 212.32 6.91468 212.75 7.56801C213.198 8.20268 213.562 8.80934 213.842 9.38801H213.926C214.206 8.92134 214.57 8.38934 215.018 7.79201C215.484 7.17601 215.96 6.56001 216.446 5.94401C216.95 5.32801 217.398 4.76801 217.79 4.26401C218.182 3.76001 218.443 3.38668 218.574 3.14401C218.742 2.80801 218.826 2.55601 218.826 2.38801C218.826 2.25734 218.788 2.17334 218.714 2.13601C218.658 2.08001 218.592 2.05201 218.518 2.05201H217.426C217.351 2.05201 217.286 2.01468 217.23 1.94001C217.192 1.84668 217.174 1.75334 217.174 1.66001C217.174 1.54801 217.192 1.43601 217.23 1.32401C217.286 1.21201 217.351 1.15601 217.426 1.15601C217.668 1.15601 217.986 1.16534 218.378 1.18401C218.788 1.18401 219.208 1.19334 219.638 1.21201C220.067 1.21201 220.431 1.21201 220.73 1.21201C220.972 1.21201 221.29 1.21201 221.682 1.21201C222.092 1.19334 222.494 1.18401 222.886 1.18401C223.296 1.16534 223.614 1.15601 223.838 1.15601C223.931 1.15601 223.996 1.21201 224.034 1.32401C224.09 1.41734 224.118 1.51068 224.118 1.60401C224.118 1.71601 224.09 1.82801 224.034 1.94001C223.996 2.03334 223.931 2.08001 223.838 2.08001H223.138C222.932 2.08001 222.727 2.10801 222.522 2.16401C222.335 2.22001 222.139 2.34134 221.934 2.52801C221.467 2.92001 220.916 3.42401 220.282 4.04001C219.666 4.63734 219.031 5.28134 218.378 5.97201C217.724 6.66268 217.118 7.34401 216.558 8.01601C216.016 8.66934 215.568 9.26668 215.214 9.80801C214.878 10.3307 214.71 10.732 214.71 11.012V17.06C214.71 17.8627 214.775 18.404 214.906 18.684C215.036 18.9453 215.167 19.076 215.298 19.076H216.922C217.071 19.076 217.146 19.2533 217.146 19.608C217.146 19.6827 217.127 19.7667 217.09 19.86C217.071 19.9533 217.015 20 216.922 20C216.343 20 215.755 20 215.158 20C214.56 19.9813 213.991 19.972 213.45 19.972C212.666 19.972 212.04 19.9813 211.574 20C211.126 20 210.752 20.0093 210.454 20.028C210.174 20.0467 209.884 20.056 209.586 20.056C209.511 20.056 209.455 20.0093 209.418 19.916C209.38 19.8227 209.362 19.72 209.362 19.608C209.362 19.4773 209.38 19.3653 209.418 19.272C209.455 19.16 209.511 19.104 209.586 19.104H210.79C211.275 19.104 211.583 19.0107 211.714 18.824C211.863 18.6373 211.938 18.3013 211.938 17.816V11.544Z" fill="black"/>
<path d="M227.926 17.004C227.926 17.788 227.982 18.3387 228.094 18.656C228.206 18.9733 228.337 19.132 228.486 19.132H229.886C229.942 19.132 229.989 19.1787 230.026 19.272C230.082 19.3653 230.11 19.4773 230.11 19.608C230.11 19.7013 230.091 19.7947 230.054 19.888C230.035 19.9627 229.998 20 229.942 20C229.606 20 229.167 20 228.626 20C228.085 19.9813 227.441 19.972 226.694 19.972C225.798 19.972 225.163 19.9813 224.79 20C224.417 20.0373 224.118 20.056 223.894 20.056C223.819 20.056 223.763 20 223.726 19.888C223.707 19.776 223.698 19.6827 223.698 19.608C223.698 19.5147 223.707 19.4307 223.726 19.356C223.763 19.2627 223.81 19.216 223.866 19.216H225.126C225.331 19.216 225.453 19.1693 225.49 19.076C225.527 18.9827 225.546 18.7587 225.546 18.404V9.58401C225.546 8.80001 225.49 8.23068 225.378 7.87601C225.285 7.52134 225.154 7.34401 224.986 7.34401H223.978C223.754 7.34401 223.642 7.20401 223.642 6.92401C223.642 6.62534 223.745 6.47601 223.95 6.47601C224.305 6.47601 224.725 6.49468 225.21 6.53201C225.695 6.55068 226.19 6.55068 226.694 6.53201C227.03 6.53201 227.422 6.53201 227.87 6.53201C228.337 6.51334 228.738 6.50401 229.074 6.50401C229.429 6.48534 229.606 6.47601 229.606 6.47601C229.662 6.47601 229.709 6.52268 229.746 6.61601C229.783 6.70934 229.802 6.80268 229.802 6.89601C229.802 7.15734 229.727 7.28801 229.578 7.28801H228.29C228.159 7.28801 228.066 7.31601 228.01 7.37201C227.954 7.42801 227.926 7.54934 227.926 7.73601V17.004Z" fill="black"/>
<path d="M244.604 20.168C244.604 20.168 244.399 19.9347 243.988 19.468C243.596 18.9827 243.073 18.348 242.42 17.564C241.767 16.78 241.039 15.912 240.236 14.96C239.433 14.008 238.631 13.0467 237.828 12.076C237.025 11.0867 236.279 10.1813 235.588 9.36001H235.504C235.541 11.3013 235.569 12.9253 235.588 14.232C235.625 15.5387 235.653 16.6773 235.672 17.648C235.672 18.0027 235.709 18.3387 235.784 18.656C235.859 18.9547 235.961 19.104 236.092 19.104H237.212C237.268 19.104 237.305 19.1693 237.324 19.3C237.361 19.4307 237.38 19.552 237.38 19.664C237.38 19.7387 237.371 19.8133 237.352 19.888C237.333 19.944 237.287 19.972 237.212 19.972H234.888C234.44 19.972 233.973 19.9813 233.488 20C233.003 20.0187 232.62 20.028 232.34 20.028C232.303 20.028 232.265 19.9907 232.228 19.916C232.209 19.8413 232.2 19.7667 232.2 19.692C232.2 19.5987 232.209 19.496 232.228 19.384C232.265 19.272 232.303 19.216 232.34 19.216H233.012C233.329 19.216 233.553 19.1787 233.684 19.104C233.815 19.0293 233.889 18.88 233.908 18.656C233.964 17.984 234.02 17.2 234.076 16.304C234.132 15.408 234.179 14.4747 234.216 13.504C234.253 12.5333 234.281 11.5813 234.3 10.648C234.319 9.69601 234.328 8.82801 234.328 8.04401L234.188 7.87601C233.964 7.61468 233.74 7.46534 233.516 7.42801C233.311 7.37201 232.947 7.34401 232.424 7.34401C232.312 7.34401 232.256 7.19468 232.256 6.89601C232.256 6.61601 232.312 6.47601 232.424 6.47601C232.667 6.47601 233.04 6.48534 233.544 6.50401C234.067 6.50401 234.599 6.51334 235.14 6.53201C235.681 6.53201 236.092 6.53201 236.372 6.53201C236.372 6.53201 236.54 6.74668 236.876 7.17601C237.212 7.58668 237.641 8.13734 238.164 8.82801C238.705 9.50001 239.293 10.2373 239.928 11.04C240.563 11.8427 241.179 12.636 241.776 13.42C242.373 14.1853 242.905 14.8667 243.372 15.464C243.839 16.0613 244.175 16.4907 244.38 16.752H244.436C244.417 14.8667 244.399 13.2147 244.38 11.796C244.361 10.3587 244.315 9.15468 244.24 8.18401C244.184 7.62401 244.035 7.34401 243.792 7.34401H242.812C242.737 7.34401 242.681 7.29734 242.644 7.20401C242.625 7.09201 242.616 6.98001 242.616 6.86801C242.616 6.77468 242.635 6.69068 242.672 6.61601C242.709 6.52268 242.756 6.47601 242.812 6.47601C243.092 6.47601 243.465 6.48534 243.932 6.50401C244.399 6.52268 244.8 6.53201 245.136 6.53201C245.528 6.53201 245.967 6.52268 246.452 6.50401C246.937 6.48534 247.357 6.47601 247.712 6.47601C247.749 6.47601 247.787 6.52268 247.824 6.61601C247.861 6.69068 247.88 6.77468 247.88 6.86801C247.88 7.14801 247.824 7.28801 247.712 7.28801H246.732C246.452 7.28801 246.275 7.36268 246.2 7.51201C246.125 7.66134 246.069 7.89468 246.032 8.21201C245.976 8.73468 245.92 9.60268 245.864 10.816C245.827 12.0107 245.789 13.4107 245.752 15.016C245.733 16.6213 245.724 18.3107 245.724 20.084C245.724 20.2707 245.556 20.364 245.22 20.364C244.94 20.364 244.735 20.2987 244.604 20.168Z" fill="black"/>
<path d="M257.532 17.06C257.532 16.5187 257.709 15.968 258.064 15.408C258.418 14.848 258.866 14.344 259.408 13.896C259.949 13.4293 260.5 13.084 261.06 12.86C260.612 12.2253 260.248 11.6 259.968 10.984C259.706 10.3493 259.576 9.76134 259.576 9.22001C259.576 8.39868 259.79 7.70801 260.22 7.14801C260.649 6.56934 261.19 6.13068 261.844 5.83201C262.497 5.53334 263.141 5.38401 263.776 5.38401C264.504 5.38401 265.138 5.58934 265.68 6.00001C266.221 6.39201 266.492 7.01734 266.492 7.87601C266.492 8.32401 266.389 8.78134 266.184 9.24801C265.997 9.69601 265.708 10.1067 265.316 10.48C267.406 10.48 269.049 10.3307 270.244 10.032C271.438 9.73334 272.288 9.34134 272.792 8.85601C273.296 8.37068 273.548 7.84801 273.548 7.28801C273.548 6.85868 273.436 6.42934 273.212 6.00001C272.988 5.55201 272.698 5.13201 272.344 4.74001C272.68 4.42268 273.1 4.26401 273.604 4.26401C274.164 4.26401 274.668 4.49734 275.116 4.96401C275.582 5.41201 275.816 6.04668 275.816 6.86801C275.816 7.42801 275.62 8.00668 275.228 8.60401C274.836 9.18268 274.182 9.69601 273.268 10.144C272.372 10.592 271.14 10.9093 269.572 11.096C269.441 12.1227 269.208 13.056 268.872 13.896C268.554 14.736 268.181 15.492 267.752 16.164C268.349 16.5187 268.937 16.7987 269.516 17.004C270.094 17.2093 270.626 17.312 271.112 17.312C271.784 17.312 272.306 17.2373 272.68 17.088C273.072 16.92 273.361 16.7427 273.548 16.556C273.734 16.3507 273.874 16.1733 273.968 16.024C274.061 15.856 274.154 15.772 274.248 15.772C274.397 15.772 274.472 15.856 274.472 16.024C274.472 16.1547 274.36 16.3973 274.136 16.752C273.912 17.1067 273.604 17.4893 273.212 17.9C272.838 18.3107 272.418 18.6653 271.952 18.964C271.485 19.244 271 19.384 270.496 19.384C269.936 19.384 269.301 19.244 268.592 18.964C267.882 18.6653 267.145 18.2827 266.38 17.816C265.484 18.6747 264.55 19.3093 263.58 19.72C262.609 20.1307 261.75 20.336 261.004 20.336C260.126 20.336 259.436 20.1773 258.932 19.86C258.428 19.5427 258.064 19.132 257.84 18.628C257.634 18.124 257.532 17.6013 257.532 17.06ZM261.2 8.46401C261.2 8.91201 261.349 9.44401 261.648 10.06C261.965 10.6573 262.394 11.292 262.936 11.964C263.477 12.6173 264.084 13.2613 264.756 13.896C265.446 14.5307 266.156 15.1 266.884 15.604C267.089 15.1747 267.248 14.6987 267.36 14.176C267.472 13.6347 267.528 13.0653 267.528 12.468C267.528 12.0573 267.5 11.6467 267.444 11.236C266.94 11.236 266.408 11.2267 265.848 11.208C265.288 11.1893 264.709 11.152 264.112 11.096C264.28 10.816 264.429 10.4613 264.56 10.032C264.69 9.58401 264.756 9.14534 264.756 8.71601C264.756 8.04401 264.56 7.54001 264.168 7.20401C263.794 6.86801 263.374 6.70001 262.908 6.70001C262.478 6.70001 262.086 6.84934 261.732 7.14801C261.377 7.42801 261.2 7.86668 261.2 8.46401ZM262.544 18.712C263.682 18.712 264.728 18.2547 265.68 17.34C264.914 16.7987 264.158 16.192 263.412 15.52C262.684 14.8293 262.04 14.1293 261.48 13.42C260.976 13.7933 260.584 14.2227 260.304 14.708C260.024 15.1747 259.884 15.7347 259.884 16.388C259.884 17.004 260.126 17.5453 260.612 18.012C261.097 18.4787 261.741 18.712 262.544 18.712Z" fill="black"/>
<path d="M292.082 11.544C292.082 11.32 291.942 10.9747 291.662 10.508C291.382 10.0227 291.018 9.48134 290.57 8.88401C290.122 8.26801 289.637 7.64268 289.114 7.00801C288.592 6.37334 288.097 5.77601 287.63 5.21601C287.164 4.65601 286.772 4.19868 286.454 3.84401C285.782 3.06001 285.288 2.56534 284.97 2.36001C284.653 2.15468 284.364 2.05201 284.102 2.05201H283.206C283.15 2.05201 283.104 2.00534 283.066 1.91201C283.029 1.80001 283.01 1.68801 283.01 1.57601C283.01 1.48268 283.029 1.38934 283.066 1.29601C283.085 1.20268 283.132 1.15601 283.206 1.15601C283.468 1.15601 283.804 1.16534 284.214 1.18401C284.625 1.18401 285.054 1.19334 285.502 1.21201C285.95 1.21201 286.342 1.21201 286.678 1.21201C286.958 1.21201 287.313 1.21201 287.742 1.21201C288.19 1.19334 288.629 1.18401 289.058 1.18401C289.506 1.18401 289.88 1.18401 290.178 1.18401C290.477 1.16534 290.626 1.15601 290.626 1.15601C290.701 1.15601 290.757 1.22134 290.794 1.35201C290.85 1.46401 290.878 1.57601 290.878 1.68801C290.878 1.78134 290.86 1.87468 290.822 1.96801C290.785 2.04268 290.72 2.08001 290.626 2.08001H288.666C288.666 2.13601 288.797 2.33201 289.058 2.66801C289.338 3.00401 289.693 3.43334 290.122 3.95601C290.57 4.47868 291.037 5.04801 291.522 5.66401C292.008 6.28001 292.465 6.91468 292.894 7.56801C293.342 8.20268 293.706 8.80934 293.986 9.38801H294.07C294.35 8.92134 294.714 8.38934 295.162 7.79201C295.629 7.17601 296.105 6.56001 296.59 5.94401C297.094 5.32801 297.542 4.76801 297.934 4.26401C298.326 3.76001 298.588 3.38668 298.718 3.14401C298.886 2.80801 298.97 2.55601 298.97 2.38801C298.97 2.25734 298.933 2.17334 298.858 2.13601C298.802 2.08001 298.737 2.05201 298.662 2.05201H297.57C297.496 2.05201 297.43 2.01468 297.374 1.94001C297.337 1.84668 297.318 1.75334 297.318 1.66001C297.318 1.54801 297.337 1.43601 297.374 1.32401C297.43 1.21201 297.496 1.15601 297.57 1.15601C297.813 1.15601 298.13 1.16534 298.522 1.18401C298.933 1.18401 299.353 1.19334 299.782 1.21201C300.212 1.21201 300.576 1.21201 300.874 1.21201C301.117 1.21201 301.434 1.21201 301.826 1.21201C302.237 1.19334 302.638 1.18401 303.03 1.18401C303.441 1.16534 303.758 1.15601 303.982 1.15601C304.076 1.15601 304.141 1.21201 304.178 1.32401C304.234 1.41734 304.262 1.51068 304.262 1.60401C304.262 1.71601 304.234 1.82801 304.178 1.94001C304.141 2.03334 304.076 2.08001 303.982 2.08001H303.282C303.077 2.08001 302.872 2.10801 302.666 2.16401C302.48 2.22001 302.284 2.34134 302.078 2.52801C301.612 2.92001 301.061 3.42401 300.426 4.04001C299.81 4.63734 299.176 5.28134 298.522 5.97201C297.869 6.66268 297.262 7.34401 296.702 8.01601C296.161 8.66934 295.713 9.26668 295.358 9.80801C295.022 10.3307 294.854 10.732 294.854 11.012V17.06C294.854 17.8627 294.92 18.404 295.05 18.684C295.181 18.9453 295.312 19.076 295.442 19.076H297.066C297.216 19.076 297.29 19.2533 297.29 19.608C297.29 19.6827 297.272 19.7667 297.234 19.86C297.216 19.9533 297.16 20 297.066 20C296.488 20 295.9 20 295.302 20C294.705 19.9813 294.136 19.972 293.594 19.972C292.81 19.972 292.185 19.9813 291.718 20C291.27 20 290.897 20.0093 290.598 20.028C290.318 20.0467 290.029 20.056 289.73 20.056C289.656 20.056 289.6 20.0093 289.562 19.916C289.525 19.8227 289.506 19.72 289.506 19.608C289.506 19.4773 289.525 19.3653 289.562 19.272C289.6 19.16 289.656 19.104 289.73 19.104H290.934C291.42 19.104 291.728 19.0107 291.858 18.824C292.008 18.6373 292.082 18.3013 292.082 17.816V11.544Z" fill="black"/>
<path d="M307.375 6.42001C307.45 6.25201 307.636 6.16801 307.935 6.16801C308.215 6.16801 308.392 6.26134 308.467 6.44801C308.56 6.85868 308.738 7.42801 308.999 8.15601C309.279 8.88401 309.606 9.70534 309.979 10.62C310.352 11.516 310.735 12.44 311.127 13.392C311.538 14.3253 311.93 15.2213 312.303 16.08C312.695 16.92 313.031 17.6387 313.311 18.236C313.535 18.7027 313.74 19.0013 313.927 19.132C314.114 19.244 314.403 19.3 314.795 19.3C314.907 19.3 314.963 19.412 314.963 19.636C314.963 19.7293 314.954 19.8227 314.935 19.916C314.916 20.0093 314.879 20.056 314.823 20.056C314.244 20.056 313.759 20.0467 313.367 20.028C312.975 20.0093 312.564 20 312.135 20C311.78 20 311.351 20.0093 310.847 20.028C310.343 20.0467 309.764 20.056 309.111 20.056C309.036 20.056 308.99 20.0187 308.971 19.944C308.952 19.8507 308.943 19.7667 308.943 19.692C308.943 19.4493 308.999 19.328 309.111 19.328H310.455C310.66 19.328 310.763 19.244 310.763 19.076C310.763 19.02 310.688 18.7867 310.539 18.376C310.39 17.9653 310.194 17.4427 309.951 16.808C309.727 16.1733 309.475 15.492 309.195 14.764H305.303C304.911 15.7347 304.584 16.5747 304.323 17.284C304.062 17.9933 303.931 18.4787 303.931 18.74C303.931 18.964 303.968 19.1133 304.043 19.188C304.118 19.2627 304.192 19.3 304.267 19.3H305.415C305.564 19.3 305.639 19.412 305.639 19.636C305.639 19.7293 305.62 19.8227 305.583 19.916C305.564 20.0093 305.527 20.056 305.471 20.056C305.004 20.056 304.631 20.0467 304.351 20.028C304.09 20.028 303.847 20.0187 303.623 20C303.418 20 303.175 20 302.895 20C302.559 20 302.223 20.0093 301.887 20.028C301.57 20.0467 301.168 20.056 300.683 20.056C300.608 20.056 300.552 20.0187 300.515 19.944C300.496 19.8507 300.487 19.7667 300.487 19.692C300.487 19.4493 300.552 19.328 300.683 19.328H301.579C301.784 19.328 301.934 19.244 302.027 19.076C302.214 18.7773 302.475 18.2547 302.811 17.508C303.166 16.7427 303.558 15.856 303.987 14.848C304.416 13.84 304.846 12.804 305.275 11.74C305.723 10.676 306.134 9.67734 306.507 8.74401C306.88 7.79201 307.17 7.01734 307.375 6.42001ZM308.831 13.812C308.57 13.0467 308.308 12.2907 308.047 11.544C307.804 10.7973 307.58 10.1347 307.375 9.55601H307.291C307.048 10.2467 306.787 10.9653 306.507 11.712C306.227 12.4587 305.956 13.1587 305.695 13.812H308.831Z" fill="black"/>
<path d="M328.686 20.168C328.686 20.168 328.481 19.9347 328.07 19.468C327.678 18.9827 327.155 18.348 326.502 17.564C325.849 16.78 325.121 15.912 324.318 14.96C323.515 14.008 322.713 13.0467 321.91 12.076C321.107 11.0867 320.361 10.1813 319.67 9.36001H319.586C319.623 11.3013 319.651 12.9253 319.67 14.232C319.707 15.5387 319.735 16.6773 319.754 17.648C319.754 18.0027 319.791 18.3387 319.866 18.656C319.941 18.9547 320.043 19.104 320.174 19.104H321.294C321.35 19.104 321.387 19.1693 321.406 19.3C321.443 19.4307 321.462 19.552 321.462 19.664C321.462 19.7387 321.453 19.8133 321.434 19.888C321.415 19.944 321.369 19.972 321.294 19.972H318.97C318.522 19.972 318.055 19.9813 317.57 20C317.085 20.0187 316.702 20.028 316.422 20.028C316.385 20.028 316.347 19.9907 316.31 19.916C316.291 19.8413 316.282 19.7667 316.282 19.692C316.282 19.5987 316.291 19.496 316.31 19.384C316.347 19.272 316.385 19.216 316.422 19.216H317.094C317.411 19.216 317.635 19.1787 317.766 19.104C317.897 19.0293 317.971 18.88 317.99 18.656C318.046 17.984 318.102 17.2 318.158 16.304C318.214 15.408 318.261 14.4747 318.298 13.504C318.335 12.5333 318.363 11.5813 318.382 10.648C318.401 9.69601 318.41 8.82801 318.41 8.04401L318.27 7.87601C318.046 7.61468 317.822 7.46534 317.598 7.42801C317.393 7.37201 317.029 7.34401 316.506 7.34401C316.394 7.34401 316.338 7.19468 316.338 6.89601C316.338 6.61601 316.394 6.47601 316.506 6.47601C316.749 6.47601 317.122 6.48534 317.626 6.50401C318.149 6.50401 318.681 6.51334 319.222 6.53201C319.763 6.53201 320.174 6.53201 320.454 6.53201C320.454 6.53201 320.622 6.74668 320.958 7.17601C321.294 7.58668 321.723 8.13734 322.246 8.82801C322.787 9.50001 323.375 10.2373 324.01 11.04C324.645 11.8427 325.261 12.636 325.858 13.42C326.455 14.1853 326.987 14.8667 327.454 15.464C327.921 16.0613 328.257 16.4907 328.462 16.752H328.518C328.499 14.8667 328.481 13.2147 328.462 11.796C328.443 10.3587 328.397 9.15468 328.322 8.18401C328.266 7.62401 328.117 7.34401 327.874 7.34401H326.894C326.819 7.34401 326.763 7.29734 326.726 7.20401C326.707 7.09201 326.698 6.98001 326.698 6.86801C326.698 6.77468 326.717 6.69068 326.754 6.61601C326.791 6.52268 326.838 6.47601 326.894 6.47601C327.174 6.47601 327.547 6.48534 328.014 6.50401C328.481 6.52268 328.882 6.53201 329.218 6.53201C329.61 6.53201 330.049 6.52268 330.534 6.50401C331.019 6.48534 331.439 6.47601 331.794 6.47601C331.831 6.47601 331.869 6.52268 331.906 6.61601C331.943 6.69068 331.962 6.77468 331.962 6.86801C331.962 7.14801 331.906 7.28801 331.794 7.28801H330.814C330.534 7.28801 330.357 7.36268 330.282 7.51201C330.207 7.66134 330.151 7.89468 330.114 8.21201C330.058 8.73468 330.002 9.60268 329.946 10.816C329.909 12.0107 329.871 13.4107 329.834 15.016C329.815 16.6213 329.806 18.3107 329.806 20.084C329.806 20.2707 329.638 20.364 329.302 20.364C329.022 20.364 328.817 20.2987 328.686 20.168Z" fill="black"/>
<path d="M347.052 15.856C347.052 16.9013 347.061 17.732 347.08 18.348C347.117 18.9453 347.155 19.4027 347.192 19.72C347.248 20.0187 347.285 20.2333 347.304 20.364C347.341 20.5133 347.36 20.6533 347.36 20.784C347.36 20.952 347.267 21.036 347.08 21.036C346.931 21.036 346.8 20.9053 346.688 20.644C346.595 20.3827 346.501 20.1307 346.408 19.888C346.315 19.6267 346.184 19.496 346.016 19.496C345.941 19.496 345.717 19.5707 345.344 19.72C344.971 19.8693 344.495 20.0093 343.916 20.14C343.356 20.2893 342.759 20.364 342.124 20.364C340.612 20.364 339.231 20.112 337.98 19.608C336.748 19.104 335.768 18.3667 335.04 17.396C334.312 16.4067 333.948 15.1933 333.948 13.756C333.948 12.524 334.181 11.4413 334.648 10.508C335.115 9.55601 335.74 8.76268 336.524 8.12801C337.327 7.47468 338.223 6.98934 339.212 6.67201C340.22 6.33601 341.265 6.16801 342.348 6.16801C343.057 6.16801 343.645 6.23334 344.112 6.36401C344.579 6.49468 345.092 6.68134 345.652 6.92401V6.47601C345.652 6.32668 345.773 6.25201 346.016 6.25201C346.259 6.25201 346.38 6.32668 346.38 6.47601C346.38 6.98001 346.389 7.50268 346.408 8.04401C346.445 8.56668 346.501 9.07068 346.576 9.55601C346.613 9.70534 346.473 9.78001 346.156 9.78001C345.951 9.78001 345.829 9.71468 345.792 9.58401L345.652 8.68801C345.073 8.14668 344.476 7.76401 343.86 7.54001C343.244 7.31601 342.591 7.20401 341.9 7.20401C341.023 7.20401 340.192 7.43734 339.408 7.90401C338.624 8.37068 337.989 9.05201 337.504 9.94801C337.019 10.844 336.776 11.9453 336.776 13.252C336.776 14.4653 337.009 15.5293 337.476 16.444C337.943 17.3587 338.577 18.0773 339.38 18.6C340.183 19.104 341.088 19.356 342.096 19.356C342.656 19.356 343.123 19.2907 343.496 19.16C343.888 19.0293 344.177 18.908 344.364 18.796C344.569 18.6653 344.672 18.6 344.672 18.6V16.724C344.672 15.94 344.625 15.4453 344.532 15.24C344.439 15.0347 344.345 14.932 344.252 14.932H342.096C341.965 14.932 341.9 14.792 341.9 14.512C341.9 14.4373 341.909 14.3533 341.928 14.26C341.965 14.1667 342.021 14.12 342.096 14.12C342.376 14.12 342.74 14.12 343.188 14.12C343.655 14.12 344.112 14.1293 344.56 14.148C345.008 14.148 345.372 14.148 345.652 14.148C346.529 14.148 347.145 14.1387 347.5 14.12C347.873 14.1013 348.219 14.092 348.536 14.092C348.592 14.092 348.639 14.1387 348.676 14.232C348.713 14.3253 348.732 14.4187 348.732 14.512C348.732 14.5867 348.713 14.68 348.676 14.792C348.657 14.8853 348.611 14.932 348.536 14.932H347.92C347.565 14.932 347.332 14.9973 347.22 15.128C347.108 15.2587 347.052 15.5013 347.052 15.856Z" fill="black"/>
</svg>
