<svg width="31" height="36" viewBox="0 0 31 36" fill="none" xmlns="http://www.w3.org/2000/svg">
<path d="M30.6713 8.61065V14.7066C29.6062 14.6026 28.2223 14.3605 26.6914 13.7996C24.6925 13.0667 23.2045 12.0647 22.2299 11.2888V23.6097L22.2051 23.5712C22.2209 23.8155 22.2299 24.0643 22.2299 24.3154C22.2299 30.434 17.2528 35.4148 11.1338 35.4148C5.01475 35.4148 0.0376587 30.434 0.0376587 24.3154C0.0376587 18.1968 5.01475 13.2137 11.1338 13.2137C11.733 13.2137 12.321 13.2612 12.8953 13.354V19.3617C12.3436 19.1649 11.7511 19.0586 11.1338 19.0586C8.23709 19.0586 5.87857 21.4156 5.87857 24.3154C5.87857 27.2152 8.23709 29.5721 11.1338 29.5721C14.0305 29.5721 16.389 27.2129 16.389 24.3154C16.389 24.2068 16.3868 24.0982 16.38 23.9897V0.046875H22.4696C22.4922 0.5626 22.5126 1.08287 22.5352 1.5986C22.5759 2.61422 22.9377 3.58913 23.5686 4.3876C24.308 5.32631 25.4002 6.41654 26.9334 7.28739C28.3693 8.09943 29.7171 8.45006 30.6713 8.61518V8.61065Z" fill="#FF725E"/>
</svg>
