<svg width="48" height="53" viewBox="0 0 48 53" fill="none" xmlns="http://www.w3.org/2000/svg">
<g clip-path="url(#clip0_9_223)">
<path d="M23.9105 -0.0631789C23.833 -0.0476117 23.7565 -0.0265038 23.6815 1.34036e-05C23.2678 0.103163 22.8991 0.362704 22.6382 0.734408C22.3773 1.10611 22.2402 1.56698 22.2505 2.03847V4.20536C12.6074 5.17771 4.91748 13.7331 4.04167 24.4615H2.09583C2.03845 24.4585 1.98098 24.4585 1.9236 24.4615C1.43766 24.487 0.980692 24.7261 0.653229 25.1263C0.325766 25.5266 0.154631 26.0552 0.17747 26.5958C0.200309 27.1365 0.415253 27.6448 0.775015 28.0092C1.13478 28.3735 1.60989 28.5639 2.09583 28.5385H4.0435C4.91748 39.2669 12.6074 47.8223 22.2505 48.7967V50.9616C22.2505 51.5022 22.4435 52.0207 22.7872 52.403C23.1308 52.7852 23.5968 53 24.0828 53C24.5687 53 25.0347 52.7852 25.3783 52.403C25.722 52.0207 25.915 51.5022 25.915 50.9616V48.7947C35.5581 47.8223 43.248 39.2669 44.1238 28.5385H46.0697C46.5556 28.5385 47.0217 28.3237 47.3653 27.9414C47.7089 27.5591 47.9019 27.0406 47.9019 26.5C47.9019 25.9594 47.7089 25.4409 47.3653 25.0586C47.0217 24.6763 46.5556 24.4615 46.0697 24.4615H44.122C43.248 13.7331 35.5599 5.17771 25.915 4.20332V2.03847C25.9242 1.7486 25.8778 1.45987 25.7787 1.19157C25.6797 0.923267 25.5303 0.681576 25.3405 0.482643C25.1508 0.283711 24.9251 0.132117 24.6785 0.0379907C24.4319 -0.0561355 24.1701 -0.0906269 23.9105 -0.0631789ZM22.2505 10.3187V12.2308C22.2505 12.7714 22.4435 13.2899 22.7872 13.6722C23.1308 14.0545 23.5968 14.2692 24.0828 14.2692C24.5687 14.2692 25.0347 14.0545 25.3783 13.6722C25.722 13.2899 25.915 12.7714 25.915 12.2308V10.3187C29.1463 10.7664 32.151 12.4003 34.4535 14.962C36.756 17.5237 38.2247 20.8666 38.6271 24.4615H36.9085C36.8511 24.4585 36.7936 24.4585 36.7362 24.4615C36.2503 24.487 35.7933 24.7261 35.4659 25.1263C35.1384 25.5266 34.9673 26.0552 34.9901 26.5958C35.0129 27.1365 35.2279 27.6448 35.5876 28.0092C35.9474 28.3735 36.4225 28.5639 36.9085 28.5385H38.6271C38.2247 32.1334 36.756 35.4764 34.4535 38.038C32.151 40.5997 29.1463 42.2337 25.915 42.6813V40.7692C25.9218 40.4595 25.865 40.1521 25.749 39.8704C25.6329 39.5887 25.4607 39.3401 25.2454 39.1436C25.03 38.9471 24.7773 38.8078 24.5063 38.7362C24.2353 38.6647 23.9532 38.6628 23.6815 38.7308C23.2678 38.8339 22.8991 39.0935 22.6382 39.4652C22.3773 39.8369 22.2402 40.2977 22.2505 40.7692V42.6813C19.0192 42.2337 16.0145 40.5997 13.712 38.038C11.4095 35.4764 9.94076 32.1334 9.5384 28.5385H11.257C11.743 28.5385 12.209 28.3237 12.5526 27.9414C12.8962 27.5591 13.0893 27.0406 13.0893 26.5C13.0893 25.9594 12.8962 25.4409 12.5526 25.0586C12.209 24.6763 11.743 24.4615 11.257 24.4615H9.5384C9.94076 20.8666 11.4095 17.5237 13.712 14.962C16.0145 12.4003 19.0192 10.7664 22.2505 10.3187Z" fill="#F3BA2F"/>
</g>
<defs>
<clipPath id="clip0_9_223">
<rect width="47.6383" height="53" fill="white" transform="translate(0.26358)"/>
</clipPath>
</defs>
</svg>
